<svg xmlns="http://www.w3.org/2000/svg" width="731.092" height="407.472" viewBox="0 0 731.092 407.472">
  <g id="Group_11602" data-name="Group 11602" opacity="0.15">
    <path id="Path_26017" data-name="Path 26017" d="M213.163,188.64a2.948,2.948,0,0,1,.337-.184,3.477,3.477,0,0,0-.436-.031C213.1,188.495,213.125,188.569,213.163,188.64Z" transform="translate(-62.552 -105.737)" fill="#808184"/>
    <path id="Path_26018" data-name="Path 26018" d="M216.28,191.118c2.391-1.889-.323-7.3-3.553-7.084-.83,1.8.235,4.51,2.2,5.619a3.138,3.138,0,0,0-1.224.265A4.2,4.2,0,0,1,216.28,191.118Z" transform="translate(-62.759 -106.72)" fill="#808184"/>
    <path id="Path_26019" data-name="Path 26019" d="M226.964,215.52a2.487,2.487,0,0,0-2.075-2.647l.512,2.451-1.358-1.012A3.17,3.17,0,0,0,226.964,215.52Z" transform="translate(-58.954 -101.125)" fill="#808184"/>
    <path id="Path_26020" data-name="Path 26020" d="M187.034,166.3c-.384-1.342.916-2.316,2.208-2.4s2.682.345,3.942.141,2.352-1.5,1.651-2.758a8.346,8.346,0,0,1,4.93,1.178q.142-.616.285-1.232a3.314,3.314,0,0,0,4.525-2.455c.141-1.025-.514-2.484-1.563-2.524-.62-.024-1.04.469-1.546.748s-1.41.169-1.59-.462c-.121-.431.2-.774.267-1.186.155-1-1.133-1.8-2.151-2.194l-4.861-1.875a1.513,1.513,0,0,0-1.249-.116c-.614.376-.157,1.41.095,2.2a2.963,2.963,0,0,1-4.01,3.6,10.307,10.307,0,0,1,.295,3.336,19.584,19.584,0,0,1-4.389-.9c-.457,1.182-.84,4.113.253,5.458C184.47,165.276,187.191,166.85,187.034,166.3Z" transform="translate(-71.861 -108.373)" fill="#808184"/>
    <path id="Path_26021" data-name="Path 26021" d="M229.579,148.409c1.1.516,2.192,1.014,3.305,1.534a11.862,11.862,0,0,0-.806,5.518,2.243,2.243,0,0,0,.9.255v.035c.024-.005.045-.023.069-.029a2.074,2.074,0,0,0,.253.021v-.128a2.706,2.706,0,0,0,.468-.2,4.111,4.111,0,0,1-.537-2.087,4.78,4.78,0,0,1,.069-.814v-.073a5.8,5.8,0,0,1,1.386-2.914,6.768,6.768,0,0,0,1.71-2.171c.257-.869-.677-1.8-1.338-1.134-.065-.78-.113-1.561-.177-2.34a1.809,1.809,0,0,1-1.9-1.05v.012a2.165,2.165,0,0,1-.065-1.831,2.826,2.826,0,0,0-3.176-.205l1.483,5.018c-1.193-.177-2.371-.353-3.564-.514-.532.357-.4,1.267.08,1.869A4.951,4.951,0,0,0,229.579,148.409Z" transform="translate(-57.887 -111.917)" fill="#808184"/>
    <path id="Path_26022" data-name="Path 26022" d="M221.45,143.732l1.259.153a7.639,7.639,0,0,0,.276-4.262,4.562,4.562,0,0,1-4.759.295C217.705,141.461,219.794,142.994,221.45,143.732Z" transform="translate(-60.89 -112.18)" fill="#808184"/>
    <path id="Path_26023" data-name="Path 26023" d="M201.3,146.991a3.062,3.062,0,0,0,1.394.489,2.306,2.306,0,0,0,.774-.185l5.013-1.843.848-.629a2.963,2.963,0,0,0,.165,1.835,5.461,5.461,0,0,0,4.368-5.558l-2.8-.492a2.976,2.976,0,0,1-4.542,2.455,5.373,5.373,0,0,0-1.233-.644,2.61,2.61,0,0,0-.862-.024l-4.349.375a2.136,2.136,0,0,0-.973.241c-.661.432-.552,1.561,0,2.318A6.276,6.276,0,0,0,201.3,146.991Z" transform="translate(-63.15 -111.852)" fill="#808184"/>
    <path id="Path_26024" data-name="Path 26024" d="M220.279,168.339c.873,1.216,1.309,2.834.7,3.961a2.146,2.146,0,0,1-3.433.187c-.964-1.07-.111-3.033-1.315-3.783-1.029-.641-1.886.684-1.806,1.822l.14,2.283c.9-.577,2.176.937,2.187,2.1s-.558,2.216-.284,3.389c.4,1.711,2.851,2.795,4.012,1.773a1.679,1.679,0,0,1-.469-2.391,4.507,4.507,0,0,1,2.215-1.16,2.471,2.471,0,0,0,1.826-1.587c.212-.968-.462-2.218.036-3.029.309-.5,1.006-.686,1.182-1.267.28-.924-.981-1.887-1.991-2S221.25,168.8,220.279,168.339Z" transform="translate(-62.115 -102.623)" fill="#808184"/>
    <path id="Path_26025" data-name="Path 26025" d="M223.714,168.576c.464-.42-.12-1.288-.66-1.8a7.764,7.764,0,0,0-2.324-1.713,1.846,1.846,0,0,0-2.328.488,2.813,2.813,0,0,0-.225,1.3q-.044,2.565-.089,5.129c-.536-1.311-.488-2.723-1.068-4.022s-2.336-2.427-3.211-1.578q-.138,2.579-.277,5.157c-.428-.593-1.326-.081-1.277.6a5.066,5.066,0,0,0,.94,1.922,4.141,4.141,0,0,1,.336,3.607c-1.518.232-2.987-1.387-3.867-2.876s-1.79-3.239-3.361-3.805l3.587.74q-.01-1.19-.02-2.38l-3.785-.69a2.186,2.186,0,0,1-1.222-.508c-.825-.837.041-2.009.961-2.406s2.1-.949,1.842-2.039a21.917,21.917,0,0,1-5.094.926,2.722,2.722,0,0,1,1.871-3.424l-6.126.385a4.966,4.966,0,0,0-4.709,4.919c1.722.383,3.849,1.033,5.018,2.762a16.489,16.489,0,0,1-9.546-1.3c1.711.62,2.143,3.1,3.683,4.186,1.16.818,2.608.608,3.873,1.185a7.978,7.978,0,0,1,2.895,2.894,3.421,3.421,0,0,1,.76,1.634c.032.574-.464,1.113-1.018.885-.706-2.531-4.528-3.821-5.955-2.013a5.59,5.59,0,0,0-6.467.381c.087,1.4,1.735,2.411,3.117,2.632s2.79.021,4.124.622,2.376,2.574,1.394,3.373c-.522.425-1.342.3-2.029.445s-1.291.924-.79,1.55l4.717.429c2.379.217,4.883.412,6.835-.62a10.469,10.469,0,0,0,3.135-3l.22,2.879c.8-.477,2.186.361,2.29,1.385a7.261,7.261,0,0,1-.205,1.449,2.868,2.868,0,0,0,1.717,2.682,1.971,1.971,0,0,0,2.6-.9,5.96,5.96,0,0,1-2.55-4.233,11.123,11.123,0,0,0,7.589,1.991c-2.4-3.265-4.958-7.191-4.052-10.637.88.612,1.7-.453,1.821-1.417s.224-2.207,1.173-2.327c.323-.04.7.071.965-.095.8-.505-.778-1.845-.75-2.864s1.718-1.37,1.331-2.4l3.251.609A1.149,1.149,0,0,0,223.714,168.576Z" transform="translate(-71.17 -105)" fill="#808184"/>
    <path id="Path_26026" data-name="Path 26026" d="M210.773,147.978c-.6.244-.776,1.034-1.352,1.321-.768.383-2.021-.231-2.564.421a3.082,3.082,0,0,0-.349,1.133c-.365,1.242-2.288,1.643-3.4,1.673,2.106,2.624,4.016.661,6.429,1.847,1.427.7,1.879,2.539,2.1,4.057a9.345,9.345,0,0,0-3.089-2.7,3.287,3.287,0,0,0-3.536.133,2.378,2.378,0,0,0,.163,3.391,3.939,3.939,0,0,0,1.474.75,10.988,10.988,0,0,0,5.539.324l3.9,2a4.808,4.808,0,0,0,2.945.8,1.384,1.384,0,0,0,.7-2.279,2.435,2.435,0,0,0,2.591-2.475.957.957,0,0,1-1.293.4,2.224,2.224,0,0,1-.841-2.522,17.689,17.689,0,0,1,1.231-2.256,2.408,2.408,0,0,0-.228-2.624,4.4,4.4,0,0,0-3.6.976,1.9,1.9,0,0,0-.665,1.058c-.3,1.677,2.252,3.936,1.094,5.051-2.56.544-5.906-2.2-5.724-4.906.077-1.153.7-2.136.69-3.307S211.783,147.567,210.773,147.978Z" transform="translate(-65.831 -109.422)" fill="#808184"/>
    <path id="Path_26027" data-name="Path 26027" d="M217.423,155.06a2.69,2.69,0,0,1,.129.929A.726.726,0,0,0,217.423,155.06Z" transform="translate(-61.122 -107.042)" fill="#808184"/>
    <path id="Path_26028" data-name="Path 26028" d="M214.581,146.1l.713-.765a8.67,8.67,0,0,0,1.947,3.86,4.522,4.522,0,0,1,4.906-3.112,13.916,13.916,0,0,0-7.794-3.631A4.211,4.211,0,0,1,214.581,146.1Z" transform="translate(-62.135 -111.238)" fill="#808184"/>
    <path id="Path_26029" data-name="Path 26029" d="M224.8,162.827c-.288.389-.928.315-1.324.592s.024,1.194.356.957a2.415,2.415,0,0,0,2.456.868,1.825,1.825,0,0,0,1.076-2.218l2.77.241a1.829,1.829,0,0,1-.272-2.383c.429-.684,1.12-1.177,1.4-1.957.694-1.963-1.974-4.452-4.081-4.2a3.289,3.289,0,0,1-4.174,4.3C222.742,160.374,225.578,161.782,224.8,162.827Z" transform="translate(-59.305 -107.159)" fill="#808184"/>
    <path id="Path_26030" data-name="Path 26030" d="M223.23,176.762a2.828,2.828,0,0,0-.733,1.373,4.9,4.9,0,0,1-5,3.073c1.14.377,1.327,2.008.974,3.044s-.937,2.168-.345,3.263a3.171,3.171,0,0,0,2.739,1.394l0-2.463a10.511,10.511,0,0,0,4.288.46c.733-2.722-2.011-6.3-.777-8.758a1.331,1.331,0,0,0,.256-.945A.953.953,0,0,0,223.23,176.762Z" transform="translate(-61.105 -99.87)" fill="#808184"/>
    <path id="Path_26031" data-name="Path 26031" d="M225.846,173.647c1.244.241,1.735,2.247,2.974,2.588.566-1.881,4.835.093,4.967-1.941.061-.961-1.022-1.725-1.871-2.352s-1.677-1.9-1.014-2.492a2.757,2.757,0,0,0-4.017.73,5.509,5.509,0,0,1-.489,1.04,1.507,1.507,0,0,1-2,.157c-1.5,2.124-1.2,5.555.705,7.974l.606-1.749a5.534,5.534,0,0,1-1.184-2.4C224.426,174.352,225.005,173.484,225.846,173.647Z" transform="translate(-59.157 -102.435)" fill="#808184"/>
    <path id="Path_26032" data-name="Path 26032" d="M231,163.175a1.848,1.848,0,0,0-2.582,1.618l-.347-.064q.038,1.236.073,2.47l3.489.608Q231.312,165.491,231,163.175Z" transform="translate(-57.635 -104.388)" fill="#808184"/>
    <path id="Path_26033" data-name="Path 26033" d="M224.214,314.191a2.157,2.157,0,0,0,1.994-.083c-1.07-1.945-3.749-1.543-5.767-2.3a15.2,15.2,0,0,1-3.751-2.638,33.608,33.608,0,0,0-5.231-3.2,16.275,16.275,0,0,0-4.4-1.794c-.123,2.01,1.941,1.846,3.708,2.3a1.734,1.734,0,0,1,1.157.682c.283.505-.027,1.034-.016,1.571.024,1.175,1.494,1.984,2.666,2.135s2.452.065,3.435.876a8.369,8.369,0,0,1,1.563,2.36c.488.813,1.377,1.625,2.184,1.429a.992.992,0,0,1,.373-1.647A3.835,3.835,0,0,1,224.214,314.191Z" transform="translate(-64.537 -84.215)" fill="#808184"/>
    <path id="Path_26034" data-name="Path 26034" d="M217.579,305.373a4.691,4.691,0,0,1-.616-1.767c-.179-.6-.728-1.284-1.283-1.166-.46.1-.573.725-.348,1.2a3.374,3.374,0,0,0,1.1,1.157l-1.677-.342A2.1,2.1,0,0,0,217.579,305.373Z" transform="translate(-62.001 -84.066)" fill="#808184"/>
    <path id="Path_26035" data-name="Path 26035" d="M225.616,318.111c1.39-.157.546-2.546,1.27-3.672.239-.37.65-.585.9-.945.613-.874.023-2.382-1-3.108a4.214,4.214,0,0,0-3.364-.562q-.1-2.025-.2-4.053c-.524.5-1.349-.624-1.473-1.428s-.7-1.975-1.374-1.679c.716-1.044-.079-2.8-1.285-3.671a4.626,4.626,0,0,0-3.873-.876,1.977,1.977,0,0,0,1.057,1.554,11.68,11.68,0,0,1,2.388,1.132c1.7,1.455.713,4.362,2.322,5.919.375.363.878.633,1.084,1.1.256.584-.085,1.184.088,1.786.264.918,1.469,1.27,2.065,2.065.809,1.079.2,2.383-.12,3.525S224.426,318.247,225.616,318.111Z" transform="translate(-61.855 -85.901)" fill="#808184"/>
    <path id="Path_26036" data-name="Path 26036" d="M231.816,316.636a3.852,3.852,0,0,1-2.155-2.28c-2.171-1.309-5.006-.159-5.274,2.139l1.711.364-.418,0,3.842,2.832a1.33,1.33,0,0,0,.453.252c.844.2.636-1.164.669-2A1.416,1.416,0,0,1,231.816,316.636Z" transform="translate(-58.845 -82.078)" fill="#808184"/>
    <path id="Path_26037" data-name="Path 26037" d="M229.961,315.94a2.925,2.925,0,0,0,1.367.252A1.724,1.724,0,0,0,229.961,315.94Z" transform="translate(-57.012 -81.319)" fill="#808184"/>
    <path id="Path_26038" data-name="Path 26038" d="M217.257,313.835a7.587,7.587,0,0,0-3.832.714l4.013,1.935.312-.112a3.9,3.9,0,0,0,2.6.16A3.712,3.712,0,0,0,217.257,313.835Z" transform="translate(-62.438 -81.881)" fill="#808184"/>
    <path id="Path_26039" data-name="Path 26039" d="M191.255,343.527a.733.733,0,0,0-.6.4l-.337-2.707q.008,2.059.017,4.118a5.309,5.309,0,0,0,.581,2.883c.552.885,1.845,1.445,2.471.824a1.482,1.482,0,0,1,1.232-1.642,5.369,5.369,0,0,1,2.384.233l-4.061-3.28A2.854,2.854,0,0,0,191.255,343.527Z" transform="translate(-69.563 -77.013)" fill="#808184"/>
    <path id="Path_26040" data-name="Path 26040" d="M374.839,255.915a4.318,4.318,0,0,0,.327-3.046Q375,254.393,374.839,255.915Z" transform="translate(-9.508 -93.508)" fill="#808184"/>
    <path id="Path_26041" data-name="Path 26041" d="M333.449,236.761c-.844,1.562-.208,3.961,1.418,3.42.705.505,1.833-.452,2.215-1.383a7.52,7.52,0,0,1,1.23-2.735c.408-.405.953-.637,1.346-1.058a4.524,4.524,0,0,0,.85-2.462,11.294,11.294,0,0,1,1.914-4.526,2.686,2.686,0,0,1,.93-.906c2.078-1.014,2.115,3.663,4.285,3.451a3.392,3.392,0,0,1-2.832,1.741q-.078,2.707-.159,5.413c-.011.4-2.278.2-2.523.136.745,1.65,1.5,3.316,2.242,4.943,1.57-3.772,4.037-3.592,7.48-4.522,3.263-.881,5.564-5.294,4.184-8.023a3.1,3.1,0,0,1-3.688-1.385,4.007,4.007,0,0,1,.774-4.277,4.055,4.055,0,0,1-4.389-4.534,2.588,2.588,0,0,0,2.644-2.791,4.813,4.813,0,0,1-4.974-2.508c-.315-.633-.536-1.4-1.177-1.689-1.168-.526-2.586.865-3.485,2.067-.964,1.288-1.953,3.125-1.02,4.105a10.7,10.7,0,0,0,1.116.74c1.5,1.226.031,3.977-1.421,5.774a1.17,1.17,0,0,1,1.479.958c-.709,1.257-2.547.513-3.788,1.23-1.427.825-1.19,2.839-1.7,4.38C335.85,233.966,334.293,235.2,333.449,236.761Z" transform="translate(-23.238 -101.961)" fill="#808184"/>
    <path id="Path_26042" data-name="Path 26042" d="M361.982,255.539c-.017.521-.027,1.042-.081,1.567l1.987-1.4A2.443,2.443,0,0,1,361.982,255.539Z" transform="translate(-13.753 -92.936)" fill="#808184"/>
    <path id="Path_26043" data-name="Path 26043" d="M360.787,255.2a3.212,3.212,0,0,0,1.609,2.122,19.636,19.636,0,0,0-1.045-7.154A10.74,10.74,0,0,0,360.787,255.2Z" transform="translate(-14.16 -94.193)" fill="#808184"/>
    <path id="Path_26044" data-name="Path 26044" d="M367.964,257.506a5.819,5.819,0,0,0,6.612.829l-3.349-.089,5.366-1.05C374.545,255.123,370.6,255.264,367.964,257.506Z" transform="translate(-11.777 -92.972)" fill="#808184"/>
    <path id="Path_26045" data-name="Path 26045" d="M363.4,248.078l.112,1.27,1.571-.391q.012-1.315.024-2.631-1.893.316-3.787.636A1.237,1.237,0,0,0,363.4,248.078Z" transform="translate(-13.962 -94.755)" fill="#808184"/>
    <path id="Path_26046" data-name="Path 26046" d="M328.814,205.466a11.879,11.879,0,0,1,6.159-8.988c-1.989,1.25-4.02-.288-5.614-1.5s-4.532-1.747-5.632.331a10.639,10.639,0,0,0-.521,1.554,4.406,4.406,0,0,1-4.725,2.842,3.2,3.2,0,0,1-1.777-4.5l-2.9,1.978a3.322,3.322,0,0,0-.59,1.419,3.111,3.111,0,0,1,3.484,2.526,11.668,11.668,0,0,1-.324,5.073C320.372,203.694,325.342,203.4,328.814,205.466Z" transform="translate(-29.746 -104.974)" fill="#808184"/>
    <path id="Path_26047" data-name="Path 26047" d="M313.629,196.393l.036-.025.007-.011Z" transform="translate(-29.577 -104.213)" fill="#808184"/>
    <path id="Path_26048" data-name="Path 26048" d="M313.661,196.692l1.622-1.341A3.58,3.58,0,0,0,313.661,196.692Z" transform="translate(-29.569 -104.437)" fill="#808184"/>
    <path id="Path_26049" data-name="Path 26049" d="M364.091,149.147c.776-1.284,1.061-2.847,2.151-3.892,1.3.561,1.03,2.567.484,4.088s-1.146,3.4-.131,4.358c.445.42,1.15.578,1.41,1.148a4.517,4.517,0,0,1,.069,1.673c.053,1.741,2.335,2.566,3.824,1.383.24-1.827-2.007-2.684-2.142-4.456-.112-1.481,1.26-2.886,1.766-4.39.433-1.285.224-2.632.756-3.894s2.5-2.188,2.976-1.084c-.954,3.061.43,6.3,3.111,7.27,1.145-3.6.4-7.6-2.319-9.466-1.184-.81-2.672-1.2-3.731-2.162a3,3,0,0,1-.36-4.136c.882-.115,1.453.648,2.055,1.189,1.657,1.486,4.256,1.487,6.66,1.423a13.892,13.892,0,0,1,1.714-7.632c.077-.115.152-.233.232-.344l-.067.005c.028-.049.047-.1.075-.152-3.818,1.857-8.234,1.643-11.18-.54,1.317.976-5.111,7.51-5.9,7.964a22.39,22.39,0,0,1-1.028-2.047c-1.945,2.158-4.879,12.756-3.808,14.784C361.31,151.378,363.315,150.431,364.091,149.147Z" transform="translate(-14.256 -115.536)" fill="#808184"/>
    <path id="Path_26050" data-name="Path 26050" d="M341.326,203.38a10.572,10.572,0,0,1-9.428.025l4.634-.673q-2.121-3.175-4.245-6.348a4.3,4.3,0,0,1,5.383,5.814,3.869,3.869,0,0,0,3.862-.111c1.445-3.973-.4-8.326-4-9.42A2.222,2.222,0,0,1,341.055,194a3.068,3.068,0,0,0,1.673-3.432,2.221,2.221,0,0,0-3.193-1q.182-2.075.363-4.152a5.161,5.161,0,0,0,5.432,2.475q-.074-2.475-.147-4.947l3.232-.215c-1.438.129-1.838-1.965-.914-3.236a7.408,7.408,0,0,1,3.91-2.3,2.039,2.039,0,0,0,2.254,2.583c1.319-2.24-1.745-4.629-3.691-2.875q-1.391-4.186-2.781-8.373c2.138-1.184,4.79-.721,5.958,1.038a6.423,6.423,0,0,0-3.287-6.258l3.325-4.594a1.666,1.666,0,0,1-1.547-2.663q.81-1.559,1.618-3.119c3.4-6.548,6.888-13.229,12.026-18.669a16.241,16.241,0,0,0-10.423-1.2c1.409,1.228-.809,3.817-2.768,4.737s-4.556,2.43-4.189,4.373c-1.835-.716-.49-3.88,1.331-5.265s4.246-2.622,4.666-4.763a28.784,28.784,0,0,0-9.769,4.609l2.96-2.526a22.6,22.6,0,0,0-11.773,3.044c.95-3.747,5.485-5.768,9.172-6.082s7.494.241,11-1.573a7.758,7.758,0,0,0-7.624-2.9l2.727-2.5-13.109,1.142c-.918-2.067,2.615-4.168,4.917-3.854s4.823,1.4,6.905-.187l-11.566-2.03a7.259,7.259,0,0,0-4.354.169c-1.811.817-2.981,2.8-4.678,3.9s-4.493.141-3.559-1.653a4.5,4.5,0,0,0-2.8,4.28,3.282,3.282,0,0,1,2.888,4.433l-4.369-4.232a4.26,4.26,0,0,1-2.644,3.093,49.463,49.463,0,0,1,1.685,10.389c-3.567-1.4-5.459-5.642-4.364-9.787q-.612,2.453-1.222,4.906c-2.48,1.97-6.225-.139-5.487-3.091l-2.9,5.568a14.358,14.358,0,0,0-.221-6.652,17.385,17.385,0,0,1-6.476,3.252q-.444,2.469-.889,4.938l-3.16-4.162a5.252,5.252,0,0,0,.64-2.279,4.507,4.507,0,0,1,3.817.458q-1.11-1.459-2.222-2.919l1.8-.985c.495-1.719-1.137-3.083-2.831-2.981s-3.332,1.177-4.855,2.211c-.473-.5.4-1.425,1.148-1.61s1.654-.217,2.1-.9c.712-1.09-.821-1.955-2.019-1.669s-2.6.973-3.457.284q-.154-.93-.309-1.861c-.2-.94-1.741-.328-2.4.54s-1.391,2.05-2.354,1.961a3.271,3.271,0,0,1,.976-3.028,3.773,3.773,0,0,0-4.478-.313c.464,1.534.232,4.114-1.442,4.246q.188-1.581.377-3.163c-2.09-.209-4.13,3.019-2.9,4.586a8.819,8.819,0,0,0-8.606,1.667l-.252,2.4a6.525,6.525,0,0,1,.113-4.457,4.252,4.252,0,0,0-2.544.056c-.941,1.8-.232,4.032,1.453,4.58a3.178,3.178,0,0,1-3.123,1.339,2.023,2.023,0,0,0-2.728-2.579l.54,1.567a6.153,6.153,0,0,0-3.491.105c-1.16.482-2.166,1.91-1.729,2.944a4.947,4.947,0,0,1,2.828.54q-1.447,1.162-2.9,2.322a6.8,6.8,0,0,1,4.862-1.1c1.445.281,2.583,2.1,1.666,3.232a1.979,1.979,0,0,1-.032,3.009l6.043-2.76a3.07,3.07,0,0,0,1.522-1.146c.311-.568-.029-1.379-.624-1.189a3.392,3.392,0,0,1,4.506,2.668l-5.031,1.475a3.43,3.43,0,0,0,1.534,3.059c-3.016-.316-7.038,2.47-8.976.351a11.359,11.359,0,0,0-1.626,5.039q-.64-2.321-1.278-4.64l-4.376-.7a19.5,19.5,0,0,1,.191,8.971,11.858,11.858,0,0,1,1.422,3.257,2.372,2.372,0,0,1-2.086-2.694,20.677,20.677,0,0,0-6.756,6.409l3.882-.621a8.872,8.872,0,0,0-.2,6.977c-.458-1.053,1.254-3.535,1.938-4.266-1.589,5.91,2.5,2.207,4.506.718s9.766-3.54,9.59-5.867a6.585,6.585,0,0,1-4.677-3.89,2.487,2.487,0,0,0,2.271-1.406c.826,1.04,2.546-.692,3.309-2.054s2.987-2.674,3.248-1.3q.468.878.933,1.757a3.643,3.643,0,0,0,2.842-3.932l2.178,2.452a11.715,11.715,0,0,1,.794-5.808l3.011-.417q.286.722.57,1.441c2.468.176,5.206-2.522,5.123-5.049a3.118,3.118,0,0,0,3.136-.606,29.644,29.644,0,0,0-7.73,1.173,6.162,6.162,0,0,1,2.383-2.622c1.473-.942,3.3-2.332,3.005-3.876,1.142-.093,1.579,1.661.61,2.444a4.139,4.139,0,0,0,2.651.288c.926-.291,1.777-1.441,1.385-2.22a2.1,2.1,0,0,1,2.764.746q-.42,3.415-.837,6.829c-3.752-.546-8.173,1.489-10.73,4.939l4.478,1.6a11.37,11.37,0,0,0-1.79,5.17l-3.271.909q-.086,1.607-.172,3.213a18.786,18.786,0,0,0-14.049,2.914c-1.769,1.9.641,4.23,2.9,4.568s5.255.89,5.033,3.293a8.687,8.687,0,0,1-7.015-1.054A4.761,4.761,0,0,0,270.972,171l-.83-.192-.317.469.384,5.1a1.165,1.165,0,0,0,.237.761c.26.253.713.184,1.109.1l8.685-1.842a11.372,11.372,0,0,1,1.546.937c3.825,2.822,4.525,8.366,4.985,13.445.364,4.026.4,8.883-2.9,11.9l2.132,1.67a6.218,6.218,0,0,1,2.744-2.876,10.633,10.633,0,0,0,1.99,8.029l-5.706-3.579a10.86,10.86,0,0,0,.872,8.525,4.241,4.241,0,0,0-.976-3.6c1.31,1.4,6.492,1.681,4.857,5.75-1.174,2.92-3.117,1.256-5.123,2.826-5.908,4.624-6.307,13.279.112,16.106a3.534,3.534,0,0,0-3.229,3,22.453,22.453,0,0,0,7.677,11.566q.074-1.8.147-3.592.9,3.247,1.8,6.492a17.867,17.867,0,0,1,6.836.064c-1.693-2.163-.853-5.744.737-8.554s3.842-5.3,5.165-8.217c1-2.212,1.426-4.576,2.476-6.773s3.043-4.358,5.3-4.542c-2.039,1.625-2.964,4.588-2.081,6.661l7.53-8.912a28.859,28.859,0,0,1,6.287-6.072c3.312-2.089,7.124-2.555,10.669-3.989S341.372,207.009,341.326,203.38Z" transform="translate(-51.461 -119.033)" fill="#808184"/>
    <path id="Path_26051" data-name="Path 26051" d="M256.385,134.588c-1.183.629-1.166,2.907.083,2.558a3.354,3.354,0,0,1,2.244-2.595A2.756,2.756,0,0,0,256.385,134.588Z" transform="translate(-48.636 -113.948)" fill="#808184"/>
    <path id="Path_26052" data-name="Path 26052" d="M257.913,134.515a8.107,8.107,0,0,1,1.118.522,1.623,1.623,0,0,0,.321-.329,1.315,1.315,0,0,0-.6-.272A1.947,1.947,0,0,0,257.913,134.515Z" transform="translate(-47.847 -113.912)" fill="#808184"/>
    <path id="Path_26053" data-name="Path 26053" d="M240.1,152.029a3.323,3.323,0,0,0,2.791,3.492,4.9,4.9,0,0,0,4.576-2.458,8.852,8.852,0,0,1,1.339-2.247c1.613-1.5,4.59-.353,5.671-2.248l-1.545-.3a3.223,3.223,0,0,1,.5-3.925,2.846,2.846,0,0,0,.549-.664c.658-1.363-2.186-2.065-1.418-3.383.307-.525.976-.642,1.531-.828s1.2-.782.969-1.251a1.147,1.147,0,0,1-1.263-1.1,9.379,9.379,0,0,1,.157-2.021,2.9,2.9,0,0,0-1.034-2.747,2.2,2.2,0,0,0-2.876.705c1.17,1.721-.858,4.979-3.071,4.933l.492.869c-.64-.159-1.025.95-.825,1.581s.521,1.431-.033,1.949c-.469.436-1.118.22-1.683.159a3.256,3.256,0,0,0-2.816,1.369,1.734,1.734,0,0,0,.3,2.414,3.938,3.938,0,0,0,2.547.5,2.289,2.289,0,0,1,1.45.217c.584.425.488,1.443-.007,2.143C244.769,151.5,242.266,150.37,240.1,152.029Z" transform="translate(-53.702 -114.693)" fill="#808184"/>
    <path id="Path_26054" data-name="Path 26054" d="M259.761,246.463a1.275,1.275,0,0,0-.352-1.9,1.355,1.355,0,0,0-1.621,1.213,4.638,4.638,0,0,0,.338,1.018,1.25,1.25,0,0,1,.007.536A2.032,2.032,0,0,0,259.761,246.463Z" transform="translate(-47.889 -95.093)" fill="#808184"/>
    <path id="Path_26055" data-name="Path 26055" d="M265.882,248.251c-.678-.744-2.047-.268-3.033.387s-2.029,1.5-3.093,1.426a3.727,3.727,0,0,0-.794-3.184,1.975,1.975,0,0,1-2.073,1.294c1.1,1.913-2.946,5.09-1.577,6.792l.008-.048a1.129,1.129,0,0,0,.856.784,1.937,1.937,0,0,0,2-1.926,5.685,5.685,0,0,1,2.78-.277q0-1.106.005-2.208c.922.608-.041,2.411.569,3.34.6.906,2.115.344,3.211-.275C263.893,252.56,267.192,249.686,265.882,248.251Z" transform="translate(-48.804 -94.885)" fill="#808184"/>
    <path id="Path_26056" data-name="Path 26056" d="M257.731,246.6a2.991,2.991,0,0,1,.329.369,1.566,1.566,0,0,0,.092-.34A1.627,1.627,0,0,1,257.731,246.6Z" transform="translate(-47.906 -94.596)" fill="#808184"/>
    <path id="Path_26057" data-name="Path 26057" d="M232.3,217.806a1.715,1.715,0,0,0-.628-.273l.061-.015a1.652,1.652,0,0,0-.668-2.094,2.5,2.5,0,0,0-1.713,2.1l1.325.229c-.021.019-.053.021-.073.041l.129-.031,1.565.269v.013l.036-.007.312.053a1.376,1.376,0,0,0-.108-.089l.115-.02A.831.831,0,0,0,232.3,217.806Z" transform="translate(-57.212 -100.638)" fill="#808184"/>
    <path id="Path_26058" data-name="Path 26058" d="M242.324,198.884a1.785,1.785,0,0,0,2.014-1.254,12.005,12.005,0,0,0-4.121-1.642l.66,4.092Z" transform="translate(-53.652 -104.381)" fill="#808184"/>
    <path id="Path_26059" data-name="Path 26059" d="M260.488,191.628c-1.613.188-3.677-.916-2.71-2.36,1-.289,2.017-.565,3.016-.854a1.644,1.644,0,0,0-1.049-2.459,2.307,2.307,0,0,0-2.322,2.038c-2.031-.207-2.29-2.838-2.548-4.873-.257-2.051-2.015-4.289-3.871-2.979a3.855,3.855,0,0,1,.323,2.895c-1.322.476-2.628.948-3.934,1.4-1.629-.373-3.58-1.287-3.144-3.073.532-2.271,4.677-3.969,3.58-5.727a1.81,1.81,0,0,0-1.742-.6,8.279,8.279,0,0,0-7.064,6.439,17.97,17.97,0,0,1,.322,5.83c-.612.108-1.225.2-1.838.292a3.241,3.241,0,0,0-2.935-2.224c.08-1.837.145-3.687.225-5.539a15.678,15.678,0,0,1,7.854-6.707c-1.161-1.246-2.726-2.6-4.548-1.859a5.443,5.443,0,0,0-2.081,1.8,35.421,35.421,0,0,0-3.177,5.253c-.117.227-.248.468-.368.7-1.181,1.821-2.372,3.639-3.551,5.461,1.032.037,2.065.073,3.112.113a8.011,8.011,0,0,1,.4,1.021v.019c.048.125.075.261.116.391a7.865,7.865,0,0,1,.207.924v-.073a7.042,7.042,0,0,1-.113,2.867,1.979,1.979,0,0,0-.2-.152,7.863,7.863,0,0,0-3.344-2.191c.048,1.041.081,2.094.129,3.135.88-.694,2.258.117,3.209,1.186v.011c.013.011.024.024.037.036.1.112.2.225.285.343v-.075a2.294,2.294,0,0,1,.209.2c.886,1.037,1.774,2.428,3.257,2.231,1.194-.145,2.178-1.27,3.339-1.749s2.66.658,1.774,1.59a3.943,3.943,0,0,0,3.934-.517,11.109,11.109,0,0,1-1.29-4.433,6.075,6.075,0,0,1,3.08,4.489,5.47,5.47,0,0,0,.549,2.274,1.3,1.3,0,0,0,2.063.039c-1.032,2.5,3.291,3.048,3.741,5.452.211,1.157-.548,2.419-.854,3.651-.5,2.039.275,3.982-.177,6.03-.436,2.029-3.435,3.96-4.306,2.307,0,1.469-.016,2.939-.016,4.406a11.7,11.7,0,0,1-7.853.079,4.209,4.209,0,0,0,1.613,3.7c1.5-4.683,6.756.324,7.273-.686-1.5,2.958,1.048,5.622,3.371,7.244,1.29.9,2.6,1.8,3.886,2.718,1.322-3.313-4.468-5.776-2.291-8.691,3.161-.816,5.161,2.315,6.339,5.042,1.757-4.793.032-10.068-3.952-12.075.565.191,1.226-.554,1.29-1.2a7.635,7.635,0,0,0-.291-1.819,3.87,3.87,0,0,1,3.08-3.9,2.568,2.568,0,0,1,2.823,3.083c.936-1.262,2.692.073,2.58,1.545-.113,1.454-.984,3.011-.613,4.349q2.975-4.008,5.967-8.018a21.147,21.147,0,0,1-11.16-8.563,2.886,2.886,0,0,0,2.419-3.411,2.244,2.244,0,0,0,2.822-.127c.323-1.169.4-2.587-.484-3.156s-2.66.9-1.951,1.683a1.7,1.7,0,0,1-2.354-1.5c1.274-.466,2.547-.917,3.821-1.367C264.311,191.342,262.1,191.426,260.488,191.628Z" transform="translate(-57.388 -110.174)" fill="#808184"/>
    <path id="Path_26060" data-name="Path 26060" d="M236.813,162.133c-1.072.189-3.842,4.2-4.121,5.362a1.931,1.931,0,0,0,1.427,2.3,4.44,4.44,0,0,0,3.1-.61c.33-.179.71-.387,1.016-.267.442.173.351.841.512,1.3.305.861,1.5.866,2.462.588s2-.728,2.828-.379c.554.235.877.785,1.337,1.16,1.594,1.3,4.245.245,6.382-.83q.1-1.623.205-3.245c.68.3,1.647-.56,1.67-1.363a1.568,1.568,0,0,0-1.4-1.507,5.826,5.826,0,0,0-2.378.279l-2.8.718a3.13,3.13,0,0,1-1.745.119.961.961,0,0,1-.514-1.4l-5.39.882c-.365.06-.8.088-.961-.213-.139-.263.024-.622.105-.945A1.553,1.553,0,0,0,236.813,162.133Z" transform="translate(-56.152 -104.696)" fill="#808184"/>
    <path id="Path_26061" data-name="Path 26061" d="M248.42,155.122a1.7,1.7,0,0,0-.271-2.618,4.7,4.7,0,0,0-2.952-.239c-.738.609-.143,1.685.61,2.006s1.753.553,1.839,1.413c-.159-1.563-6.649,4.715-7.077,6.4,1.565.844,4.59,1.385,6.142-.657-.109-.4-.219-.793-.328-1.188,1.8-.448,3.417.379,4.87,1.184a2.346,2.346,0,0,1,.789.594,5.086,5.086,0,0,1,.462,1.12,2.588,2.588,0,0,0,3.08,1.393,3.961,3.961,0,0,0,2.73-2.887,1.937,1.937,0,0,0-.084-1.2c-.7-1.465-3.065-.275-4.794-.147a.867.867,0,0,1-.738-.2c-.665-.792,1.713-1.953,1.426-2.991-.144-.522-.856-.52-1.422-.436l-3.5.522A1.842,1.842,0,0,0,248.42,155.122Z" transform="translate(-53.55 -108.011)" fill="#808184"/>
    <path id="Path_26062" data-name="Path 26062" d="M245.25,174.1c-1.2.774-1.619,2.87-.418,3.212l.037-.179a4.662,4.662,0,0,0,4.513-1.8c.341-.439.6-1.088.271-1.417a1,1,0,0,0-.549-.212A5.221,5.221,0,0,0,245.25,174.1Z" transform="translate(-52.376 -100.897)" fill="#808184"/>
    <path id="Path_26063" data-name="Path 26063" d="M237.345,152.062a3.557,3.557,0,0,0,1.95-3.433,2.349,2.349,0,0,0-2.747-1.923,1.473,1.473,0,0,0-.856.405,1.757,1.757,0,0,0-.376.88,7.715,7.715,0,0,0,.516,4.775Z" transform="translate(-55.312 -109.834)" fill="#808184"/>
    <path id="Path_26064" data-name="Path 26064" d="M233.115,156.573l-.489.083c-.921.137-1.078,1.654-.406,2.164s1.669.442,2.488.72a3.087,3.087,0,0,1,1.69,3.966c.788,1.014,2.917-.329,2.887-1.721s-1.593-2.1-2.983-1.711c.221-1.245.425-2.6-.171-3.565A1.831,1.831,0,0,0,233.115,156.573Z" transform="translate(-56.413 -106.814)" fill="#808184"/>
    <path id="Path_26065" data-name="Path 26065" d="M235.846,154.888l1.114-.055.616.369c.753.369,1.862-.642,1.835-1.541a1.7,1.7,0,0,0-1.743-1.515,6.742,6.742,0,0,0-2.684.653A2.331,2.331,0,0,0,235.846,154.888Z" transform="translate(-55.372 -108.014)" fill="#808184"/>
    <path id="Path_26066" data-name="Path 26066" d="M233.384,317.01l.071.257q.054.982.107,1.963a4.389,4.389,0,0,0,4.514-.239A3.381,3.381,0,0,0,233.384,317.01Z" transform="translate(-55.893 -81.334)" fill="#808184"/>
    <path id="Path_26067" data-name="Path 26067" d="M246.6,325.2c.984-.083,1.245-1.65.724-2.4s-1.43-1.266-1.506-2.238a2.542,2.542,0,0,0-.1-.966c-.434-.822-1.971.163-2.747-.331-.622-.4-.364-1.415-.374-2.216s-1.032-1.515-1.478-.769l-.244-1.443c-1.271.157-1.411,2.086-1.058,3.247a1.4,1.4,0,0,1,2.251.477,7.277,7.277,0,0,0,.2,1.042c.484,1.072,2.655.593,2.76,1.825a2.031,2.031,0,0,0-.968,2.294,1.37,1.37,0,0,0,1.342.8l-1.434.329q-.482,2.255-.962,4.509a1.591,1.591,0,0,0-.023.9c.3.729,1.617.219,1.926-.612a2.955,2.955,0,0,0-.381-2.342q1.663-.42,3.324-.842A3.345,3.345,0,0,0,246.6,325.2Z" transform="translate(-53.841 -82.494)" fill="#808184"/>
    <path id="Path_26068" data-name="Path 26068" d="M352.758,388.83a22.752,22.752,0,0,1-10.982-3.305c-3.241,2.7-7.789-1.959-11.466.162-.145,1.24-.291,2.464-.436,3.7-1.29.445-1.386-1.343-1.354-2.522.08-3.047-4.306-4.68-7.273-2.683a19.211,19.211,0,0,1-1.581,5.557c-1.354,1.171-2.935-.815-2.306-2.345s2.145-2.955,2.064-4.488c.08-1.029-1.339-1.637-2.355-1.006-.081,2.446-2.742,4.994-5.483,5.252a5.648,5.648,0,0,1-.886-3.741c2.322-.792,5.273-2.413,4.886-4.443a4.327,4.327,0,0,0-.9-1.6,22.115,22.115,0,0,0-1.822-3.108,2.923,2.923,0,0,0-3.661-.5,6.666,6.666,0,0,0-.564-2.717c-3.645.542-7.305,1.1-10.95,1.656a2.177,2.177,0,0,0-1.451-2.95,9.154,9.154,0,0,0-4.112-.086c.564-.317,1.129-.649,1.693-.981a5.744,5.744,0,0,0-6.063-.711c-.854-2.457-2.694-5.347-5.708-4.489-2.4.69-4.63,3.582-6.577,3.8a2.369,2.369,0,0,1-1.213-.626c-.273-.859-.548-1.718-.806-2.56-1.983,0-3.966.024-5.966.039a3.092,3.092,0,0,0,.016-1.873,16.932,16.932,0,0,0-10.4,3.539c-.741.586-1.483,1.171-2.242,1.739-.95.024-1.9.046-2.87.052.774-1.182-1.467-2.792-3.08-2.658-1.6.137-2.887,1.094-4.516,1.14s-3.725-1.8-2.726-2.831c-1.338-.382-2.678-.777-4-1.17-1.613-1.727-3.209-4.468-1.451-5.523a9.455,9.455,0,0,1,1.694-.565,2.831,2.831,0,0,0,1.241-4.257,4.454,4.454,0,0,0-5.063-1.708c1-.974-1.483-2.522-2.951-2.136s-2.9,1.407-4.436.68a5.879,5.879,0,0,0,2.258-2.452,2.7,2.7,0,0,0-1.225-3.169c.92.015,1.838.044,2.758.073a5.061,5.061,0,0,1,2.145-5.933,37.855,37.855,0,0,1-7.725-1.5c-2.419,2.912-2.676,7.338-.677,11.158-1.129-.162-2.258-.338-3.371-.5.033-1.541.065-3.067.113-4.606a20.452,20.452,0,0,1-10.966-4.479,6.918,6.918,0,0,1-2.128-2.522c-.709-1.744-.532-4.335-2.5-4.714,3.966-.754,4.709-6.305,1.193-9.016a7.079,7.079,0,0,1,3.886,1.023c-1.048-2.354.323-4.773,2.467-5.884,2.128-1.126,4.854-1.229,7.484-1.319a5.254,5.254,0,0,1,3.208.616c1.823,1.259,2.065,4.488,4.177,4.519,1.887-.464-.452-4.422,1.549-4.638.645-.071,1.29.416,1.935.732,1.854.919,3.886.421,5.854.558s4.516,1.809,3.918,3.389c1.145-.937,3.323.678,3.709,2.212s-.113,3.032.371,4.553a5.469,5.469,0,0,0,4.774,3.48,41.118,41.118,0,0,0-4.113-11.807,4.455,4.455,0,0,1-.677-1.91c0-3.091,6.355-1.181,8.209-3.5.629-.775.613-1.922,1.29-2.646,1.274-1.376,4.145-.61,5.724-1.681a4.5,4.5,0,0,0,1.355-1.891c1.048-2.241,2.113-4.493,3.16-6.733a5.116,5.116,0,0,1-3.58-2.236,9.036,9.036,0,0,1,5.935,1.688,2.733,2.733,0,0,1,1.9-4.254c2.079-.262,4.9,1.24,6.24-.1a1.028,1.028,0,0,0,.1-.125V295c.016-.024.02-.048.035-.072a1.529,1.529,0,0,0,.288-.58c.023-.078.011-.17.025-.252a3.438,3.438,0,0,0,.059-.6c0-.041,0-.08,0-.122-.009-.464-.076-.937-.128-1.415l-.008-.092c-.017-.167-.028-.332-.035-.5a3.091,3.091,0,0,1,.085-.874v-.072a2.826,2.826,0,0,1,.112-.432c.517-1.34,2.048-2.21,3.452-2.93l8.8-4.556a4.768,4.768,0,0,1,1.822-.658,1.973,1.973,0,0,1,1.774,2.728,6.522,6.522,0,0,1-1.725,2.517,15.909,15.909,0,0,1,6.031-3.505c2.274-.715,5.047-1.134,6.257-3.07a1.9,1.9,0,0,1-2.258-2.323c-2.112,1.662-5.1,2.7-7.273,1.8a3.209,3.209,0,0,1-.209-5.65c.789-.481,1.967-.966,1.854-1.735-2.855-.842-6.08,1.753-8.6,3.921s-6.419,4.282-8.611,2.55q5.006-4.349,10.015-8.7c.466-.4.918-.8,1.386-1.205,1.694-1.481,4.193-3.089,5.838-2.087-.532.47-.58.506-1.113.976,3.806-.552,7.628-1.194,11.45-1.835,1.065-.167,2.113-.345,3.161-.524a2.674,2.674,0,0,1-2.387-3.477,8.353,8.353,0,0,1,5.66,1.491c.79-1.441,1.581-2.88,2.371-4.335a10.011,10.011,0,0,1-1.146-4.573c-1.677.563-2.774,2.109-4.16,3.2-1.4,1.107-3.9,1.513-4.29.085s1.839-2.692,3.564-3.22c1.71-.511,3.952-1.621,3.725-3.131a6.863,6.863,0,0,0-5.772,2.565,2.532,2.532,0,0,1,.95-3.312,2.617,2.617,0,0,1-1.87-4.56,3.2,3.2,0,0,1-2.258-3.025,8.389,8.389,0,0,1-1.79-7.463,16.781,16.781,0,0,1-5,8.469,2.412,2.412,0,0,1-3.6-.252c-.694-1.037-.613-2.41-.856-3.646a2.664,2.664,0,0,0-2.531-2.438,4.5,4.5,0,0,1,4.128-2.85,1.831,1.831,0,0,0-1.145-2.368c-.645,1.489-3.209,2.062-4.1.926,1.515-.838.339-2.83-1.242-3.026s-3.532.224-4.579-.743c-.581-.524-.726-1.346-1.129-1.985a1.641,1.641,0,0,0-2.177-.632,4.022,4.022,0,0,1-1.387,3.966c3.048.64-2.483,6.845.452,7.7l-1.865,1.656c-.8.468-1.607.929-2.426,1.4a16.579,16.579,0,0,1,.37,12.439l-4.353.349a12.69,12.69,0,0,0-2.71,12c-.113.541-1.145.164-1.451-.4-.291-.545-.323-1.209-.838-1.634-.774-.622-1.806-.14-2.758-.131a2.912,2.912,0,0,1-2.71-1.984,1.8,1.8,0,0,1,1.645-2.219,3.408,3.408,0,0,0-2.628-1.084c-.048-.738-.081-1.487-.129-2.225.984-.06,1.967-.106,2.935-.156-.048-1.239-.1-2.462-.145-3.686.822.787,2.049-.409,1.451-1.319a3.494,3.494,0,0,0-3.015-1.116,7.609,7.609,0,0,1-3.241-.193c-.985-.412-1.839-1.92-1.033-2.338-2.242-1.438-4.466-2.889-6.692-4.325l.048-3.127c-2.644.058-5.273.1-7.918.163a9.892,9.892,0,0,0,2.033-6.939,2.705,2.705,0,0,0-2.226,3.516c-1.387-2.077-2.5-4.513-1.822-6.568.661-2.044,3.887-3.028,5.822-1.308-.259-1.171-.516-2.342-.774-3.528,3.225-1.614,6.435-3.229,9.66-4.843.1-.744.209-1.47.305-2.2-2.192.258-4.5-2.637-3.353-4.233a31.18,31.18,0,0,1,4.225,4.354c.661-.684,1.322-1.353,1.983-2.037,1.549,2.561,6,3.244,7.532,1.164a8.275,8.275,0,0,0-6.178-5.976,2.368,2.368,0,0,1-.321-2c1.08.169,2.176.326,3.257.5-.211,1.513,1.08,3.189,2.66,4.124a11.6,11.6,0,0,0,3.241,1.237,2.692,2.692,0,0,1,.161,1.614,1.962,1.962,0,0,1-2.758,1.157,4.707,4.707,0,0,0,1.694,3.615l2.063,1.081c1.113.547,2.242-.837,1.371-1.718.936-.383,2.161.367,2.967,1.165a6.782,6.782,0,0,0,2.662,2.091,1.463,1.463,0,0,0,1.322-.3v.033c.017-.02.027-.041.044-.063a1.089,1.089,0,0,0,.279-.375.644.644,0,0,0,.056-.289.574.574,0,0,0-.283-.606.18.18,0,0,1-.041.013,3.217,3.217,0,0,1-2.78-1.341,2.079,2.079,0,0,1,.1-2.647c-.969.364-2.226-.492-2.887-1.4A14.71,14.71,0,0,0,268,215.679c-.113-.1-.259-.169-.372-.258-.6-1.124-1.87-2.253-2.063-3.472a1.92,1.92,0,0,1,2.386-2.017,2.728,2.728,0,0,1,2.226,2.867c.452-.9.9-1.819,1.354-2.736.6,1.324,1.178,2.631,1.775,3.956.728-.334,1.447-.7,2.145-1.1v.03c.025-.022.049-.046.075-.067.08-.046.168-.08.248-.127v-.1a38.869,38.869,0,0,0,3.548-3.449,2.881,2.881,0,0,0-3.064,1.239c-.806-1.978,1.161-4.805,3.66-5.283a5.121,5.121,0,0,1,1.306-3.953c-2.015.659-4.08-.836-3.708-2.683a2.71,2.71,0,0,0-2.064,1.138l-.009.014a2.415,2.415,0,0,0-.706,1.8,1.647,1.647,0,0,0,.716,1.608c.032.019.072.032.108.051.057.047.1.1.167.143l-.212.193c-2.27,1.327-4.552,2.652-6.82,3.965a2.406,2.406,0,0,1-.952.381c-1.838.213-2.532-2.6-1.645-3.979s2.322-2.972,1.193-4.522c-1.677-.076-.677,2.843-2.063,3.485-1.081.518-2.548-.914-2.742-2.1s.241-2.381-.177-3.563-2.436-2.17-3-1.185c.709,2.6-2.065,4.9-4.934,4.094-.742,1.731-1.5,3.459-2.242,5.174a1.849,1.849,0,0,1-.549.8c-.757.539-2.16-.209-2.612-1.139a4.043,4.043,0,0,1,.016-2.788c.275-1.016,1.113-2.259,2.258-1.679a3.3,3.3,0,0,0-.355-2.747,2.721,2.721,0,0,0-1.5,1.74,2.322,2.322,0,0,1-1.6-1.28c-.613,1.049-1.226,2.113-1.822,3.179a10.882,10.882,0,0,1-1.258-4.52,2.448,2.448,0,0,0-.888,3.541,11.306,11.306,0,0,1-4.627-1.683,1.755,1.755,0,0,1,1.225-2.084c-2.354-1.528-4.838-3.219-6-5.548-.693,1.8-3.128,2.688-5.354,1.953a7.707,7.707,0,0,0,.71,3.732,3.809,3.809,0,0,0-3.516,4.23,19.646,19.646,0,0,1,.016-8.4,6.123,6.123,0,0,1-2.6-2.367,3.562,3.562,0,0,0-1.565.957,17.512,17.512,0,0,1-5.886-1.793c-1.806-1.056-3.257-3-2.919-4.694a10.512,10.512,0,0,0,4.45,1.942c1.565.13,3.129-.942,2.726-2.351-2.435-.181-5.063-.421-7.208-1.816s-3.355-4.4-1.71-5.749c-3.984-2.6-8.934-2.3-13.32-1.87a5.416,5.416,0,0,1,4.321-5.164c1.162-.447-.918-2.191-2.031-1.663-1.129.51-1.6,1.825-2.839,2.117-1.725.389-3.709-1.4-5.531-1.237a4.637,4.637,0,0,0-2.435,1.394,3.014,3.014,0,0,1-2.758.757c-1.049-.336-1.581-1.936-.6-2.141l4.129.389a1.9,1.9,0,0,1,2.483-1.5,22.176,22.176,0,0,0-6.869-1.16l-3.484,3.577a2.623,2.623,0,0,1-2.564,1.045c-1.113-.347-1.6-1.6-1.87-2.612-.726-2.718-1.435-5.42-2.146-8.122a34.162,34.162,0,0,0-5.724,4.085,7.427,7.427,0,0,1,3.016-6.126c-1.419-1.811-4.161-1.882-6.451-2.269s-5.193-2.329-4.386-4.107c-1.565-1.075-3.145-2.153-4.709-3.227.08-.732.145-1.466.225-2.212a39.467,39.467,0,0,0-7.66-1.657,3.4,3.4,0,0,1,.58-2.113c1.178.657,2.758.031,2.791-1.11a2.444,2.444,0,0,0-2.678-2.094c-.145,1.566-2.145,2.284-3.951,1.9a13.38,13.38,0,0,1-4.887-2.611c-.016,1.615-.048,3.241-.08,4.868-1.419.251-3.177-1.156-3.1-2.489-2.628,2.638-6.628,3.9-10.708,4.537-.161-1.056-.323-2.126-.5-3.184-1.324.295-2.662.586-3.984.88a3.184,3.184,0,0,1-2.274,4.138c3.048,1.593.92,5.927,3.176,8.413,1.4,1.535,3.79,1.651,5.79,1.608a3.424,3.424,0,0,0-1.419,4.185c-1.725.361-3.564-.987-5.193-2.043-1.613-1.054-4.014-1.86-5.047-.633a2.335,2.335,0,0,1,1.629-3.252,6.356,6.356,0,0,1-2.887-2.756c-.257,3.409-5.225,3.82-9.111,3.47a42.032,42.032,0,0,1,4.241,3.283c-.452.588-.886,1.178-1.322,1.768a3.047,3.047,0,0,1-2.515-2.269,1.853,1.853,0,0,0-.856,1.842c1.322.092,2.5,1.579,2.113,2.65,2.323,1.022,5.1.654,6.516-.9a4.911,4.911,0,0,0,2.386,1.777c-.484,1.985-.952,3.973-1.418,5.961-1.146-.767-2.71.492-1.935,1.586a11.186,11.186,0,0,1-6.821-1.625,3.441,3.441,0,0,0-.678,2.256c-1.79-.609-3.741.244-4.08,1.78-.936-1.492-3.6-.521-3.451,1.092.161,1.614,1.79,2.956,3.305,4.052-1.435-.253-2.854-.518-4.289-.785.257,1.415.532,2.818.79,4.217A2.084,2.084,0,0,0,103.265,181a2.4,2.4,0,0,1,2.306.446c.016,1.548.032,3.111.048,4.674A3.77,3.77,0,0,1,102.6,184.9a3.164,3.164,0,0,0,.822,3.235,10.765,10.765,0,0,1,1.6,1.595c.388.633.179,1.545-.564,1.486,1.774,1.137,4.225,1.076,5.483-.129a5.624,5.624,0,0,1,3.741,3.233,14.829,14.829,0,0,1-7.032-.155c1.017,1.805-.966,3.341-2.822,3.966s-3.886,1.553-3.693,3.473a195.706,195.706,0,0,0,20.965-7.026c-1.533-.6-3.08-1.2-4.629-1.8,3.339-2.412,7.661-3.568,11.886-4.7,1.967-.522,5.063-.452,5.627,1.5-1.9,1.635-5.257,1.8-7.917.379a6.286,6.286,0,0,0-.485,4.19c2.033-.3,4.081-.578,6.112-.877-.016-1.362,1.483-2.186,3-2.121a11.873,11.873,0,0,1,4.45,1.485,12.114,12.114,0,0,0-1.87,4.988c2.064,1.6,5.127,1.848,6.919.554,1.386,1.376,4.064,1.194,4.643-.318a96.792,96.792,0,0,0,2.387,11.451c.259-1.476.5-2.941.758-4.4a15.281,15.281,0,0,1,1.9,6.052c.129-2.284.243-4.571.372-6.855.516-.291,1.257.283,1.709.783a8.4,8.4,0,0,1,2.21,3.452,1.989,1.989,0,0,1-1.871,2.584c.758.376,1.5.75,2.258,1.126a4,4,0,0,1-2.951,4.835c2.678-.541,4.6,3.066,5.1,5.664.434,2.3.177,5.41-2.371,5.311.291.718.581,1.45.87,2.168a1.469,1.469,0,0,0,2.049-.623c.225.578.452,1.172.661,1.748-1.145.408-2.306.814-3.451,1.207,1.79.853,3.773,1.893,4.5,3.581s-1.178,3.609-2.807,2.482a3.452,3.452,0,0,0,3.661,2,103.5,103.5,0,0,0,5.338,9.766c-1.065.248-2.128.483-3.193.717a4.264,4.264,0,0,1,.693,2.627,1.445,1.445,0,0,1-2.145.853c1.354-1.734.854-4.433-.564-6.572a24.972,24.972,0,0,0-5.66-5.495c-.549-.429-1.113-.861-1.662-1.3,1.242,2.041,2.468,4.079,3.709,6.121.629.169,1.274.342,1.9.512,1.016,1.733.677,3.641.307,5.372-.677,3.157-1.354,6.3-2.048,9.455a2.973,2.973,0,0,1-1.1,2.062,10.529,10.529,0,0,1-2.049.567,3.043,3.043,0,0,0-1.694,3.914,8.6,8.6,0,0,0,3.355,4.132,2.949,2.949,0,0,0-1.935,3.791,4.915,4.915,0,0,0,4.193,3.089,3.672,3.672,0,0,1-4.016.789c3.129,3.738.629,9.931,5.1,12.234,1.064.552,2.306.69,3.305,1.333,3.145,2.052,1.049,6.6,3.629,9.241.564.575,1.29.989,1.854,1.564a7.9,7.9,0,0,1,1.694,3.6,36.748,36.748,0,0,0,7.966,14.014q-2.153-4.415-4.306-8.8c-.225-.479-.452-.944-.677-1.409-1.129-2.295-2.242-4.572-3.516-6.8-.79-1.4-1.629-2.76-2.531-4.118A4.529,4.529,0,0,0,171,298.887c2.339,1.583,4.613,3.27,6.789,5.027-1.919,2-.468,5.567,1.661,8.061s4.935,4.666,6.194,7.511a15.092,15.092,0,0,0,1.467,3.278c.741,1,2.306,1.764,3.257,1.183a1.851,1.851,0,0,1-1.951,1.828,8.156,8.156,0,0,0,3.048,3.826c-1.935-.388-1.678,2.615-.016,3.762s3.95,1.621,5.063,3.2c.032,1.093-.1,1.918-.064,3.011l5.175-.651a2.426,2.426,0,0,1,.6,2.341,20.913,20.913,0,0,1,8.661,4.948c.032-.854.064-1.694.1-2.548,1.1-.958,3.161.538,3.984,1.955.806,1.429,1.645,3.248,3.305,3.58a3.571,3.571,0,0,1,2.71-2.323c.048,2.054.1,4.123.145,6.177l5.113.413a2.632,2.632,0,0,0,.419-1.408,3.714,3.714,0,0,0,.758,1.622c2.047.319,4.08.638,6.128.944-.984.647-1.967,1.281-2.952,1.914,4.032,1.433,7.193,5.391,7.241,9.063a30.725,30.725,0,0,0,8.693,2.062c.241-.692.484-1.384.741-2.074,2.646-.975,4.742,5.294,7.161,5.186.354,2.445.08,5.08-1.661,6.209.9.713,1.806,1.442,2.708,2.155-1.451.446-3,.962-3.773,2.129a2.722,2.722,0,0,0,1.37,3.822c-1.822-.515-3.644-1.029-5.482-1.532a7.343,7.343,0,0,1-2.807,6.174c.516-.176,1.033-.354,1.549-.544a4.687,4.687,0,0,1,2.4,3.539c.032.549-.049,1.165.4,1.609.516.51,1.338.423,2.048.478.709.039,1.661.575,1.467,1.145a41.965,41.965,0,0,1-9.015-1.468,11.553,11.553,0,0,0,2.161,3.86c1.081,1.113,2.807,1.884,4.145,1.449-1.225,2.413-.113,5.895,2.532,7.868a7.428,7.428,0,0,1,1.419,1.182c.9,1.129.434,2.5.466,3.767a2.978,2.978,0,0,0,1.694,2.425c-.42.021-.854.039-1.274.045a20.5,20.5,0,0,0,7.5,4.079,4.084,4.084,0,0,0,.806,4.993,2.982,2.982,0,0,1,3.58-1.916c.195,1.132.613,2.5.79,3.63l3.484,2.692a9.7,9.7,0,0,0,1.225,7.605c-.629,1.591-1.273,3.193-1.9,4.784,2.176.369,2.467,3.192,2.031,5.013-1.048,4.372-2.081,8.749-3.128,13.107,1.37-.4,3.064,1.023,3.371,2.417a5.541,5.541,0,0,1-.952,3.788q-1.427,2.632-2.855,5.278a4.384,4.384,0,0,0-.757,2.859,2.507,2.507,0,0,0,2.467,2,11.338,11.338,0,0,0-.258,7.5,7.218,7.218,0,0,1,4.145.491,2.944,2.944,0,0,1,1.129,1.157v.022c.035.052.051.111.08.166a2.194,2.194,0,0,1,.2.736,1.468,1.468,0,0,1-.259.84,1.048,1.048,0,0,1-.3.247c-.564.3-1.354.189-1.919.473-.968.506-.757,1.87-.452,2.963.877.112,1.766.215,2.646.324v0l.015,0,.308.038v-.1c1.41-.263,2.832-.536,4.241-.81a4.587,4.587,0,0,1-.275,2.877,7.176,7.176,0,0,0-4.21-.468,7.937,7.937,0,0,0-1.5-.085c-.322.981-.645,1.96-.984,2.938a2.231,2.231,0,0,0-2.742-1.045c-.081.888-.145,1.766-.225,2.642a14.18,14.18,0,0,0,4.4,1.175,4.435,4.435,0,0,0-1.4,2.93,2.593,2.593,0,0,0,2.371,2.339v.037l.08-.037c.021,0,.043,0,.065,0a2.894,2.894,0,0,1,.177.243V503A1.481,1.481,0,0,1,274,505.044a2.62,2.62,0,0,1,1.451,1.748v.04a5.947,5.947,0,0,1,.193.662c.049.216.093.434.129.647v-.072c.027.135.057.273.08.4.243,1.308,1.678,2.7,2.919,1.72.049,1.294.1,2.575.145,3.869l5.209-.557c1.565.515,1.355,2.522,1.5,4.074.128,1.554,2.015,3.105,3.337,1.839.307-.678.613-1.341.9-2,.6,2.311,4.209,3.077,6.547,1.38a16.934,16.934,0,0,1-7.692-4.207c-.984-.977-2.4-2.129-3.822-1.693a2.071,2.071,0,0,0,0-2.705c-.741-.885-1.742-2.045-.87-3.112,2,.289,3.773-1.993,4.3-3.894s.694-4.073,2.387-5.455c-.209-.711-.436-1.435-.645-2.147-2,1.63-5.338,1.123-5.983-.91,1-.414,2.017-.816,3.032-1.233.774-1.324-2.015-1.43-2.644-2.606-.629-1.147,1.161-2.572,2.66-3.108s3.4-1.177,3.757-2.563c-.886.067-1.758.133-2.628.212,1.6-1.781-2.1-2.993-2.4-5.02-.291-1.945,3.1-3.533,4.919-2.631a2.455,2.455,0,0,0,.482,1.871l3.339-.781c-3.048-.882-1.129-7.008,2.178-8.313-.452.757-.9,1.5-1.355,2.258a46.835,46.835,0,0,0,11.014-5.445q-2.685-2.521-5.37-5.027c.275-1.389.565-2.78.838-4.182a9.062,9.062,0,0,0,8.306,2.164,7.972,7.972,0,0,0-.742-4.136c1.581-.733,3.144-1.464,4.725-2.2-1.758-1.8.29-5.67,3.209-6.084a8.278,8.278,0,0,1,5.193-4.577q-1.112-2.339-2.226-4.676a2.737,2.737,0,0,1-.355-1.376c.227-1.838,3.177-2.329,5.129-2.134a5.408,5.408,0,0,1,1.677-2.839c2.371-2.6,6.112-5.579,8.87-4.164a8.112,8.112,0,0,1,4.016-3.635,39.12,39.12,0,0,1,3.661-13.812,16.037,16.037,0,0,1-2.4-7.11c.968.349,1.935.7,2.919,1.046,2.338-4.087,5.289-8.657,10.015-10.112C351.6,393.792,350.984,390.753,352.758,388.83Zm-84.036-16.994c-2.015.343-3.371-2.618-2.742-4.337.323-.894.872-1.739,1.242-2.611A8.157,8.157,0,0,1,268.722,371.836Z" transform="translate(-99.717 -112.411)" fill="#808184"/>
    <path id="Path_26069" data-name="Path 26069" d="M402.379,193.936a3.719,3.719,0,0,0-1.994-1.519Z" transform="translate(-1.135 -105.002)" fill="#808184"/>
    <path id="Path_26070" data-name="Path 26070" d="M410.33,187.623a3.25,3.25,0,0,0,2.3-3.351q-1.879-1.405-3.757-2.814a15.777,15.777,0,0,0,1.471,7.58A2.183,2.183,0,0,1,410.33,187.623Z" transform="translate(1.635 -98.257)" fill="#808184"/>
    <path id="Path_26071" data-name="Path 26071" d="M421.624,178.016a5.587,5.587,0,0,0,.546,1.288c1.174,1.725,3.551.753,4.865-.413l.111-.271q-1.611-1.286-3.224-2.572a3.3,3.3,0,0,1-.99-1.068c-.616-1.287.774-2.239,1.173-3.436.495-1.481-.609-3.284-1.8-4.626s-2.611-2.676-3.011-4.34c1.523,4.272-.36,8.936-4.148,10.272A8.118,8.118,0,0,1,421.624,178.016Z" transform="translate(3.684 -104.54)" fill="#808184"/>
    <path id="Path_26072" data-name="Path 26072" d="M422.077,162.469c3.712.189,1.407-2.4,3.036-4.574,2.154-2.88,6.062-4.445,9.861-4.42a4.748,4.748,0,0,0-2.718-4.841,2.084,2.084,0,0,0-2.419,3.149c-2.364-.689-5.194-1.271-6.621.379C421.635,153.993,415.5,162.135,422.077,162.469Z" transform="translate(4.97 -109.22)" fill="#808184"/>
    <path id="Path_26073" data-name="Path 26073" d="M448.273,130.67c1.057-.649,2.5-.518,3.72-.878s2.266-1.7,1.506-2.949a3.928,3.928,0,0,0-.866-.9l-5.671-4.761a10.12,10.12,0,0,0,1.165,5.839A8.882,8.882,0,0,0,448.273,130.67Z" transform="translate(14.104 -118.319)" fill="#808184"/>
    <path id="Path_26074" data-name="Path 26074" d="M521.239,151.258a3.8,3.8,0,0,0,3.112.379v.1c.08-.052.156-.113.235-.169.06-.023.127-.031.184-.056v-.077a4.929,4.929,0,0,0,2.033-3.709,2.287,2.287,0,0,1-2.223.183,4.194,4.194,0,0,1-1.2-1.414,8.709,8.709,0,0,1-.645-4.113c-1.031-.149-2.081-.3-3.128-.454a4.927,4.927,0,0,1,2.58,2.438c-.71,1.15-2.662.305-3.87-.714s-2.726-2.286-3.984-1.766c2.065,2.622,4.129,5.259,6.176,7.878Z" transform="translate(36.198 -111.468)" fill="#808184"/>
    <path id="Path_26075" data-name="Path 26075" d="M454.763,134.34c1.541.993,3.315,1.593,4.631,2.9l3.053.71a14.249,14.249,0,0,1-3.677-7.994,10.583,10.583,0,0,0-3.627-1.47,2.542,2.542,0,0,0-2.9,1.467C451.77,131.5,453.222,133.348,454.763,134.34Z" transform="translate(15.819 -115.896)" fill="#808184"/>
    <path id="Path_26076" data-name="Path 26076" d="M464.128,136.155c.768,1.781-.592,3.82.621,5.385l-.928-.4a2.7,2.7,0,0,0,3.227.221,2.552,2.552,0,0,0,.482-3.125l2.206-.416q0-1.273,0-2.546a43.034,43.034,0,0,1-7.837-4.314c-.894.333-.606,1.8.1,2.658A12.41,12.41,0,0,1,464.128,136.155Z" transform="translate(18.835 -115.063)" fill="#808184"/>
    <path id="Path_26077" data-name="Path 26077" d="M510.049,322.124l.389,1.578a10.454,10.454,0,0,0,1.05,8.994,18.839,18.839,0,0,0,.992-6.023C512.488,324.91,511.808,322.551,510.049,322.124Z" transform="translate(34.754 -80.788)" fill="#808184"/>
    <path id="Path_26078" data-name="Path 26078" d="M512.618,333.812c-.594,1.335.536,3.393,2.089,3.8l.019-.149,1.566.232A4.176,4.176,0,0,0,512.618,333.812Z" transform="translate(35.606 -78.127)" fill="#808184"/>
    <path id="Path_26079" data-name="Path 26079" d="M488.8,329.663a9.6,9.6,0,0,0,.818,4.731l-.283.706a2.047,2.047,0,0,0,2.68,1.308,2.594,2.594,0,0,0,1.04-2.779C492.748,331.593,490.735,329.481,488.8,329.663Z" transform="translate(27.835 -79.122)" fill="#808184"/>
    <path id="Path_26080" data-name="Path 26080" d="M434.4,363.193a6.954,6.954,0,0,1-8.015-3.051c-.312,2.366-4.433,2.918-3.541,5.347.412,1.124,1.693,1.681,2.755,2.251s2.226,1.723,1.878,2.736c-.414,1.209-2.755,1.513-2.028,2.776a18.183,18.183,0,0,1-2.539-1.1c-.277,2.719-1.791,12.624,2.062,13.273l6.01,1.02q0-4.188.009-8.375a3.671,3.671,0,0,1,.542-2.4c.437-.508,1.155-.69,1.657-1.133a4.163,4.163,0,0,0,1-1.835q2.7-7.849,5.4-15.7C438.68,359.705,437.056,362.239,434.4,363.193Z" transform="translate(6.046 -75.742)" fill="#808184"/>
    <path id="Path_26081" data-name="Path 26081" d="M412.114,133.615a4.956,4.956,0,0,0,2.562.382c-.013-2.754-.2-5.919-2.328-8.037a7.55,7.55,0,0,1,.845,5.066l-.584-.013-1.625.382C410.644,132.132,411.3,133.185,412.114,133.615Z" transform="translate(2.307 -116.727)" fill="#808184"/>
    <path id="Path_26082" data-name="Path 26082" d="M417.9,126.993a3.4,3.4,0,0,0-1.046-3.569,4.524,4.524,0,0,0,.073,4.514Z" transform="translate(4.078 -117.571)" fill="#808184"/>
    <path id="Path_26083" data-name="Path 26083" d="M399.2,133.649a4.651,4.651,0,0,0,.291,1.226l.649-.918c.023,0,.045.005.067,0a1.611,1.611,0,0,0,.477-.123l-.5.489,3.273.486a9.2,9.2,0,0,1-.073-2.235,1.949,1.949,0,0,0,.956-.526,2.568,2.568,0,0,0,.117-2.937,7,7,0,0,1,.976-1.31l-1.9-.646a2.29,2.29,0,0,1-.265,1.675,4.217,4.217,0,0,0-3.587,2.36,5.287,5.287,0,0,0-.59.354,1.343,1.343,0,0,0-.6.778A1.385,1.385,0,0,0,399.2,133.649Z" transform="translate(-1.772 -116.328)" fill="#808184"/>
    <path id="Path_26084" data-name="Path 26084" d="M394.794,128.7c-1.05.564-.362,2.6.9,3.068a2.348,2.348,0,0,0,2.943-1.475,7.171,7.171,0,0,0,.18-3.405c-.111.72-1.47.788-2.4.477-1.082-.361-2.74-.044-2.213,1.009Z" transform="translate(-3.198 -116.419)" fill="#808184"/>
    <path id="Path_26085" data-name="Path 26085" d="M611.578,377.67a15.99,15.99,0,0,1-10.756-9.586,16.743,16.743,0,0,1,12.062-4.917l-1.4-3.913a31.477,31.477,0,0,0,13.047-3.413c4.886-3.523,7.4-10.336,5.644-15.315,1.645-1.064,3.305-2.147,4.951-3.212a11.2,11.2,0,0,0-4.322-6.495c.822-1.613,1.629-3.221,2.451-4.834-5.708-.929-6.515-10.221-1.21-14.026a19.761,19.761,0,0,0-8.8,5.1c-1.225-1.734-2.467-3.467-3.709-5.2,2.807-3.527,5.612-7.069,8.418-10.6.71,1.955,1.435,3.908,2.144,5.863.533-3.093,4.274-5.688,7.032-4.869.129,2.267.257,4.518.387,6.787,2.226-.087,4.452-.156,6.677-.243-.388,2.1-.758,4.326.032,6.074a3.268,3.268,0,0,0,4.983,1.218c3.692-3.071-2.339-7.425-1.485-11.9l-4.434.105q1.329-8.195,3.241-16.36c1.047,1.767,3.9,1.618,5.854.209a13.393,13.393,0,0,0,4.048-5.826c5.419-12.856,4.032-27.318-3.516-36.664a8.94,8.94,0,0,1-4.644,4.27,12.4,12.4,0,0,0-10.08-3.5c2.9-3.834,3.387-9.144,1.129-12.552,1.662-.938,3.323-1.877,4.967-2.811a31.473,31.473,0,0,1,3.064-9.893c6.274-.332,12.854-4.057,16.949-9.6a4.913,4.913,0,0,0,4.934,2.6c-2.742-3.241-1.4-9.476,2.646-12.416-.468-1.288-.92-2.579-1.387-3.884l6.935-2.092a2.916,2.916,0,0,0,3.355,4.085c1.79-4.089.968-8.782-1.951-11.252,2.983-1.252,6.37-.4,7.9,1.994-1,.918-2.015,1.839-3.031,2.76,2.387,10.641,1.225,22.651-3.241,33.84a56.243,56.243,0,0,1,12.707,16.354,28.207,28.207,0,0,0,.822-15.9c.92-.468,1.855-.94,2.791-1.41a36.851,36.851,0,0,0-5.242-13.7c-2.371-3.663-5.45-8.247-2.694-12.572l5.517-.247c-.533-1.245-1.049-2.492-1.565-3.724l10.321-2.254c.048-5.122.112-10.261.161-15.382q4.958-.7,9.933-1.4c-3.564-4.4-8.434-8.012-14.417-8.391-2.967-.187-7.225-1.855-5.177-4.474a8.108,8.108,0,0,0,8.241.451,12.007,12.007,0,0,0,.08-6.271,4.209,4.209,0,0,1-5.45-4.6c2.58-1.535,5.918-.7,6.919,1.731.419-1.38.822-2.742,1.241-4.121,2.4.48,4.806.942,7.225,1.419a5.626,5.626,0,0,0-4.113-6.516c1.9-1.867,2.532-4.9,1.435-6.881-1.79.461-3.58.938-5.354,1.4a5.105,5.105,0,0,1,1.21,5.447c-1.887-1.827-3.774-3.672-5.66-5.5a121.854,121.854,0,0,0-23.48,1.4c-3.387.517-7.225,1.467-9.419,4.436,2.13.753,4.274,1.519,6.4,2.274q-1.064,2.219-2.128,4.438c-5.4-2.418-12.95-.57-17.853,4.358.856,2.09-1.193,5.226-3.58,5.5-1.677-2.977-3.353-5.939-5.031-8.918q-4.45.5-8.9,1.022c.4,3.54-4.321,6.019-7.934,7.043-2.031.568-4.225,1.133-5.983.426a3.151,3.151,0,0,1-1.145-4.942,7.07,7.07,0,0,0-7,1.862c2.871,1.026-.081,7.045-2.935,5.986-.6-1.557-1.177-3.131-1.774-4.687-2.339.977-4.661,1.967-7,2.944,1.953,1.639,3.888,3.265,5.839,4.889-1.485.406-2.968.813-4.436,1.217a8.785,8.785,0,0,1-.37,6.468c-2.112-3.176-7.741-2.892-10.66.541.758,2.382,1.533,4.777,2.29,7.16a20.455,20.455,0,0,1-4.861-.091,28.58,28.58,0,0,1-11.589-10.387l5.419-.012c-2.919-5.385-9.4-8.9-14.755-8.021a11.271,11.271,0,0,1,5.838,6.126c-4.9-.865-9.822-1.715-14.723-2.564a4.116,4.116,0,0,0-3.725-4.026,2.819,2.819,0,0,0-2.306,4.044c-2.968-.765-5.935-1.514-8.9-2.279,3.321,4.166-.549,10.514-5.338,8.783,4.176-5.811-1.807-17.9,4.611-21.136-1.758-.648-3.532-1.3-5.29-1.931-.064-1.543-.112-3.084-.161-4.625a25.391,25.391,0,0,0-8.369-1.17c1.515,2.88-1.081,6.276-4.081,5.345.34-1.8.662-3.608,1-5.4A7.758,7.758,0,0,1,520,141.979c-1.565,1.966-.291,5.624,2.1,7.127a1.224,1.224,0,0,0-.9,1.275c.145,1.2,1.178,2.256,1.581,3.456.92,2.678-2.789,4.62-4.854,2.563.452-2.066-2.644-4.046-4.58-3.372s-2.806,2.779-3.516,4.718a9.974,9.974,0,0,0-7.514,8.931,10.03,10.03,0,0,1,5.579,6.58,5.442,5.442,0,0,1-4.5-3.583,6.31,6.31,0,0,1-7.773,2.9c.468,3.9,4.742,6.48,8.1,8.926,3.371,2.432,6.6,7.356,4.145,9.859,2.66,1.775,5.692,2.455,8.515,3.227a6.27,6.27,0,0,1-.92,1.627,23.405,23.405,0,0,0-6.58-2.063l-2.758-.437a15.466,15.466,0,0,1-2.226-7.376c-2.676-4.213-8.53-6.164-12.207-4.072a14.845,14.845,0,0,1,7.289,4.14c-3.87,1.173-9-1.184-11.337-5.191a37.918,37.918,0,0,0,5.5,14.241c1.177-.179,2.355-.359,3.548-.536,4.1,3.173,6.58,8.514,6.16,13.181-2.194-2.547-4.37-5.093-6.564-7.656q-1.4,5.7-2.789,11.377c-1.677-.36-3.355-.817-5-1.269-2.1-.58-4.193-1.174-6.272-1.751,1.209-3.93,10.9-.948,11.417-5.679a6.561,6.561,0,0,0-1.306-3.858c-4.386-7.063-11.707-15.03-8.757-21.573l-3.629-1.607c-4.337,4.734-3.918,13.484.9,19.4a28.981,28.981,0,0,1,8.886,8.55,61.1,61.1,0,0,1-21.336-11.2c.854,2.344,1.694,4.7,2.532,7.043-.129-.023-.259-.029-.388-.052-2.951-2.552-6.966-3.841-10.063-2.548-.291,2.819-4.789,3.171-6.419.513-1.563,1.707-3.128,3.4-4.693,5.091-1.386,1.5-2.951,3.075-5.127,3.127a4.762,4.762,0,0,1-3.693-2.07,18.466,18.466,0,0,0,1.806,2.8,13.922,13.922,0,0,0-9.644.025,10.069,10.069,0,0,1,1.194,8.322c-1.533-1.174-3.048-2.328-4.564-3.483a3.41,3.41,0,0,1,.564,3.1c-.693,1.635-3.209,1.9-4.709.492a7.648,7.648,0,0,1-1.693-2.912q-2.3-5.726-4.581-11.466c2.564,1.823,5.338,3.7,8.225,3.869,2.887.187,5.66-2.179,4.757-5.1-4.709.428-9.9-5.229-9.079-9.889a21.269,21.269,0,0,1-13-2.147,3.584,3.584,0,0,1,2.4-2.9,22.277,22.277,0,0,0-12.74-3.617c1.322,1.926-1.129,3.639-3.225,3.672-.048,0-.1,0-.145.005v-.089c-2.081.754-4.709,1.718-5.063,3.845-.161.98.29,1.915-.032,2.876-.854,2.65-5.935,2.434-6.258,5.118.549,1.145,1.1,2.307,1.645,3.468-1.483.713-2.983,1.445-4.466,2.158.6,3.992-1.517,8.734-5.1,11.446,1.419.669,2.823,1.341,4.241,1.994a52.743,52.743,0,0,0-14.24,7.961,11.639,11.639,0,0,1,5.983,1.22A4.623,4.623,0,0,1,370,227.471a21.094,21.094,0,0,1,.516,10.5,10.114,10.114,0,0,0,6.4-8.709,4.408,4.408,0,0,1,4.048,1.3,26.811,26.811,0,0,0,2.226,12.058c-2.694,1.942-6.4-.806-5.178-3.829a5.331,5.331,0,0,0-5.579,2.178c-1.29,1.807-1.322,4.313-.048,5.7,2.887,1.072,6,2.167,9.272,1.25s6.419-4.791,5.274-7.67c1.193-.354,2.4-.713,3.6-1.069-1.049-2.025-2.128-4.253-1.565-6.723s3.613-4.846,5.515-3.651a14.245,14.245,0,0,0-6.29-6.616,12.405,12.405,0,0,1,4.983-8.49,10.361,10.361,0,0,1,2.7-7.234,8.247,8.247,0,0,1,8.666-1.138c-1.919,2.838-3.839,5.692-5.758,8.531,1.193,1.065,2.4,2.132,3.612,3.217-3.321.59-5.063,4.606-3.5,8.042A21.261,21.261,0,0,1,411.626,224a5.748,5.748,0,0,1,3.822,2.142c1.483,2.358-.92,4.837-3.451,4.809-2.532-.011-5.1-1.4-7.661-1.641.92,1.065,1.839,2.147,2.758,3.212a4.472,4.472,0,0,0-2.129,5.527,5.136,5.136,0,0,1-4.241-.6c1.515,2.655-.677,5.476-3.289,6.1a10.342,10.342,0,0,1-1.323.2v-.075c-2.258,1.026-4.693,1.537-6.885,2.794-2.628,1.511-4.9,5.009-3.5,7.213a35.907,35.907,0,0,0-18.287-1.614c.323,1.427.645,2.854.968,4.3-1.1.37-2.193.725-3.289,1.1-1.5,6.426-7.966,12.081-14.256,12.48a9.73,9.73,0,0,0-.291,5.325l5.87-.7c-1.1,4.4,2.29,9.628-1.4,12.568-1.531,1.206-3.5,1.134-5.241,1-3.128-.239-6.24-.48-9.37-.7a57.549,57.549,0,0,0-1.048,17.1,11.535,11.535,0,0,1,4.934-.339c.1,1.225.484,2.527.677,3.687.774,4.685-4.064,10.376-8.886,10.468a5.755,5.755,0,0,1,1.775,6.784,21.292,21.292,0,0,1-11.611,7.095q-3.411,9.14-6.805,18.278c4.6,1.4,4.564,9.323-.065,12.3a68.246,68.246,0,0,0,20.013,24.532,7.484,7.484,0,0,1,1.209-4.616c3.516,1.073,7.612.028,11.482-1.009,1.565-.421,3.129-.842,4.693-1.246a15.07,15.07,0,0,1,9.258-5.439c2.58.674,3.805,3.409,5.934,4.873,2.146,1.461,6.677.1,6.387-2.658,1.677,1.542,3.371,3.081,5.047,4.625-2.678,1.069-2.887,5.734-.291,6.115-1.29,1.275-2.58,2.567-3.87,3.842a12.5,12.5,0,0,1,7.5,6.226l-2.162,2.687c1.935,2.659,3.854,5.319,5.79,7.978-1.193.613-2.371,1.223-3.548,1.835a5.412,5.412,0,0,0,3.645.421c-1.646,2.951-2.564,5.387-1.387,8.066a8.7,8.7,0,0,0-5.886,4.6c1.225.881,2.435,1.765,3.66,2.63A3.681,3.681,0,0,1,384.114,429a7.085,7.085,0,0,0,3.645,1.277c-3.886,6.588,7.482,12.968,2.951,19.17a4.154,4.154,0,0,0,5.161,4.02v.011c.032.021.08.013.113.02q1.21,8.63,2.419,17.262a47.578,47.578,0,0,0,23.174-1.494c3.709-1.233,7.692-4.32,6.111-8.453,1.533-.342,3.048-.689,4.565-1.034a6.633,6.633,0,0,0-4.725-4.59,13.982,13.982,0,0,1,13.111-2.866c-3.709-3.685-3.5-9.663-.968-13.281s6.772-5.514,10.724-7.542c-.323-1.622-.468-3.244-.629-4.853q-1.064-11.46-2.145-22.939c3.048-2.139,6.111-4.276,9.159-6.416a59.014,59.014,0,0,0,8.386-6.649c4.854-4.869,7.95-11.321,10.353-17.993q-8.637.34-17.238.685a5.314,5.314,0,0,1-3.5-.73c-1.661-1.228-1.661-3.551-1.919-5.482-1.081-8.222-9.949-14.866-11.659-23.1-.613-2.963-1.467-7.241-4.354-7.282,2.242-1.782.065-5.875-2.176-8.447-2.226-2.586-4.725-6.364-2.855-8.55,1.113.889,2.194,1.8,3.257,2.751-.193.578-.387,1.141-.58,1.7a6.641,6.641,0,0,1,2.87.443c.5.474,1.017.937,1.5,1.425a3.509,3.509,0,0,0,.241-.521c3.871,2.618,6.612,8.6,8.37,13.441a108.61,108.61,0,0,0,13.852,26,33.635,33.635,0,0,0,20.111-5.4c2.821-1.889,6.337-4.285,9.708-2.19a11.288,11.288,0,0,1,2.338-8.184,18.72,18.72,0,0,0-7.257-4.021c-.516-1.542-1.016-3.081-1.531-4.641a12.879,12.879,0,0,0-5.758,4.581,62.073,62.073,0,0,1-14.013-21.016c2.031.1,4.064.2,6.095.316q5.226,5.808,10.435,11.629c2.112-.176,4.225-.352,6.354-.524,8.5,9.11,23.771,6.965,31.769,16.5-1.112,1.885.613,5.155,2.968,5.651.452-1.742.918-3.483,1.37-5.225,2.532,1.285,2.919,4.691,3.048,7.39.613,11.558,5.306,23.593,13.047,33.425,1.5-7.219,3.048-14.557,6.756-20.548a28.3,28.3,0,0,1,11.983-10.692q6.7-.778,13.4-1.539a17.287,17.287,0,0,0-.87,7.088c4.209,2.676,6.515,8.4,5.031,12.53a6.853,6.853,0,0,0,5.031-3.015c4.564,2.223,7.305,8.335,5.612,12.52a3.861,3.861,0,0,1,1.354-1.31c.311.741.614,1.487.92,2.234v.067c.085.179.167.364.252.545.055.136.113.269.167.407v-.044c.34.718.682,1.435,1,2.163a13.338,13.338,0,0,0,1.758-6.873,5.135,5.135,0,0,1,1.693.137,5.325,5.325,0,0,0,6.821,3.813,8.045,8.045,0,0,0,2.048,7.056,9.435,9.435,0,0,1,6.467-7.477A19.542,19.542,0,0,1,611.578,377.67ZM444.1,292.1c-2.145.2-4.322.689-6.5-.081-1.726-.61-3.225-1.939-4.9-2.784-4.048-2.053-8.934-.736-10.659,2.863a1.892,1.892,0,0,1-.1.272l-5.612-.989c1.613,1.413.726,3.933,1.758,5.792.822,1.469,2.548,2.1,4.08,2.575l.065.124a1.972,1.972,0,0,1,.145-.345,10.928,10.928,0,0,0,3.387,4.273c2.354-.954,4.838-1.937,7.546-1.587,2.726.368,5.742,2.528,6.176,5.3a7.8,7.8,0,0,1-.612,3.81c-.888,2.618-1.774,5.235-2.678,7.85a8.228,8.228,0,0,0-2.112-1.259c-3.305-1.277-6.692-.81-10.047-1.224-3.371-.4-7.354-2.3-8.4-5.675.436,2.642-2.935,3.869-5.4,2.628-2.468-1.258-4.064-3.877-5.467-6.319a18.43,18.43,0,0,0-.822,8.645c-2.766-.065-5.334-1.4-7.838-3.161v-.085c-5-1.779-9.756-5.391-15.319-3.845-.274-.952-1.774-1.914-2.048-2.864,2.16-1.817,2.887-5.186,1.515-7.153q-10.788,3.595-21.561,7.188c-2.806.93-5.854,1.871-8.386,1.01a4.941,4.941,0,0,1-4.289,2.1,35.694,35.694,0,0,0,0-4.531,9.169,9.169,0,0,1,2.338,1.185c2.242-3.251,6.289-5.254,9.757-4.817a34.281,34.281,0,0,0,1.241-11.685l6.338-1.166c.065-1.657.129-3.3.195-4.953a36.747,36.747,0,0,1,12.949-5.863c-1.565,4.436,3.451,6.987,7.53,8.009,3.048.769,6.5,2.643,7.241,5.335q.194-1.8.386-3.6a4.018,4.018,0,0,0-.064-1.763,3.4,3.4,0,0,0-1.9-1.663,36.916,36.916,0,0,1-11.6-9.228c2.887-3.814,8.209-1.77,11.386.686a8.6,8.6,0,0,0,4.048,4.246v.044a13.4,13.4,0,0,0,6.047,3.1c-1.742,1.966.291,5.5,2.387,7.822,2.081,2.318,4.564,5.321,3.628,7.848,1.306-1.785,1.194-4.385.984-6.808-.193-2.422-.386-5.019.806-6.889a3.83,3.83,0,0,1,6.016-.358,3.788,3.788,0,0,1,5.627-3.507c1.485-1.545-1.693-4.444-1.515-6.751.243-3.005,4.774-1.722,7.789-.708,5.742,1.9,11.87-.261,14.353-5.065,2.951,4.069-.565,8.61-3.886,11.233,2.371-.6,5.161,1.394,6.692,3.744s2.21,5.034,3.323,7.553c.241.542.532,1.061.822,1.579A24.643,24.643,0,0,0,444.1,292.1Zm20.481,12.271c1.967.057,3.789-.734,3.369-2.6a5.336,5.336,0,0,0-1.483-2.26q-3.725-4.044-7.466-8.09c1.435.478,1.822-1.775.984-3.1-.854-1.328-2.306-2.455-2.515-3.942a4.04,4.04,0,0,1,.806-2.6,38.635,38.635,0,0,1,3.709-4.8,24.25,24.25,0,0,0,9.917,1.281c-1.306,2.351-2.6,4.687-3.9,7.037q6.965,13.009,13.933,26C475.955,311.622,469.407,308.983,464.586,304.375Zm124.823,84.293-.552-.616c.113-.048.245-.077.37-.117V388c.06-.044.128-.081.192-.123.079-.021.148-.052.227-.071v-.073c.051-.029.1-.061.145-.092a8.537,8.537,0,0,0,.5,1.7Z" transform="translate(-29.312 -112.282)" fill="#808184"/>
    <path id="Path_26086" data-name="Path 26086" d="M522.182,140.677c.031.037.059.071.088.109v-.023a9.617,9.617,0,0,1,2.646,4.625l1.465-.188.757-.67a2,2,0,0,0,.633-2.972,4.428,4.428,0,0,0-3.047-1l-2.66-.2c-.069-.029-.139-.064-.212-.093.023.027.044.056.067.083l-.073-.005C521.966,140.441,522.068,140.566,522.182,140.677Z" transform="translate(38.677 -111.968)" fill="#808184"/>
    <path id="Path_26087" data-name="Path 26087" d="M535.3,143.162l-.36-.6,1.511-1.7-8.507-1.451C528.364,142.671,532.038,144.541,535.3,143.162Z" transform="translate(40.669 -112.249)" fill="#808184"/>
    <path id="Path_26088" data-name="Path 26088" d="M529.069,150.094c-1.124-.068-1.522,2-.562,2.478s2.243-.116,3.332-.69l-.317-.249C530.445,152.075,530.146,150.161,529.069,150.094Z" transform="translate(40.691 -108.696)" fill="#808184"/>
    <path id="Path_26089" data-name="Path 26089" d="M574.027,224.878c3.691,2.351,5.254,7.005,5.722,11.657.127,1.259.957,2.891,2.106,2.107a4.088,4.088,0,0,1,1.181-4.18,7.1,7.1,0,0,0,1.088-1.057c1.081-1.583-.67-3.023-1.9-4.068-3.207-2.727-3.849-8.345-8.026-9.523a7.321,7.321,0,0,1,.536,4.27Z" transform="translate(55.43 -100.336)" fill="#808184"/>
    <path id="Path_26090" data-name="Path 26090" d="M581.02,241.242c1.882-.737,3.1-3.232,2.4-4.9a2.539,2.539,0,0,0-2.606-1.522l.472.367A11.531,11.531,0,0,0,581.02,241.242Z" transform="translate(57.663 -97.077)" fill="#808184"/>
    <path id="Path_26091" data-name="Path 26091" d="M591.04,250.516c.808-1.377.916-2.973,1.641-4.386.24-.468.558-.98.441-1.433-.132-.509-.733-.646-1.26-.71a46.3,46.3,0,0,0-5.84-.327l-.1-1.511a4.388,4.388,0,0,0-3.324.017q-.868,5.072-1.735,10.143c-.229,1.337-.444,2.778.145,3.851l-.849-1.529a2.529,2.529,0,0,0,2.387,2.6,3.855,3.855,0,0,0,3.447-2.334l-2.917-.7a4.32,4.32,0,0,1,.7-3.585c.84-1.04,2.571-1.37,3.132-.38.245.433.231,1.018.491,1.443C588.113,252.843,590.231,251.893,591.04,250.516Z" transform="translate(57.471 -96.103)" fill="#808184"/>
    <path id="Path_26092" data-name="Path 26092" d="M589,271.822a7.317,7.317,0,0,0,4.388-.406c.826-1.072-.794-1.859-1.475-2.776a3.757,3.757,0,0,1-.514-1.945c-.26-3.132-2.031-8.494,1.575-10.805-3.119,1.258-9.21,6.122-5.37,8.677-3.119,1.176-4.707,4.166-5.486,7.206a3.2,3.2,0,0,1-.51,1.243c-.9,1.129-2.472.5-3.491-.171s-2.82-.99-3.429.293c.956.428.171,2.14-.884,2.722s-2.318.71-3.192,1.574c-1.135,1.12-1.028,2.832-.817,4.24l-2.24.788a19.513,19.513,0,0,1,6.191,9.122,27.838,27.838,0,0,0,.98-11.14l7.125-1.407a1.692,1.692,0,0,0-.769-2.271A8.892,8.892,0,0,0,589,271.822Z" transform="translate(53.275 -94.443)" fill="#808184"/>
    <path id="Path_26093" data-name="Path 26093" d="M557.325,298.706a4.609,4.609,0,0,0-1.863,2.594,1.205,1.205,0,0,0,1.315,1.323l-.626.354,2.123-.432a21.566,21.566,0,0,1,1.024-6.381A5.17,5.17,0,0,1,557.325,298.706Z" transform="translate(49.249 -85.462)" fill="#808184"/>
    <path id="Path_26094" data-name="Path 26094" d="M539.531,313.681c.149.112.428-.248.235-.275l-.231-.337-.016.044C539.446,313.316,539.384,313.57,539.531,313.681Z" transform="translate(44.464 -81.881)" fill="#808184"/>
    <path id="Path_26095" data-name="Path 26095" d="M537.842,311.514a1.774,1.774,0,0,0,2.132,2.315l.127.183q.688-1.887,1.374-3.775A12.237,12.237,0,0,0,537.842,311.514Z" transform="translate(43.896 -82.611)" fill="#808184"/>
    <path id="Path_26096" data-name="Path 26096" d="M532.434,349.623c.821-2.647-.328-5.122-1.451-7.305-1.706-3.309-5.838-3.588-6.919-6.528-1.506,3.762,2.338,3.928,2.71,7.329A7.42,7.42,0,0,0,532.434,349.623Z" transform="translate(39.283 -78.445)" fill="#808184"/>
    <path id="Path_26097" data-name="Path 26097" d="M534.918,353.649c-2.467-.147-3.564-2.743-4.918-4.649a10.845,10.845,0,0,0-7.441-4.6,9.2,9.2,0,0,0-2.3-.749c-.205,2.039.8,3.92,2.128,5.763v.088c.071.073.149.143.221.215.067.089.131.18.2.269v-.077c2.278,2.2,5.158,4.166,4.854,7.792a3.415,3.415,0,0,0,.049,1.571,1.9,1.9,0,0,0,.886.778q3.629,2.023,7.257,4.042c.581.317,1.468.564,1.935-.067a1.68,1.68,0,0,0,.243-.946c.1-2.532.177-5.046.273-7.562a2.542,2.542,0,0,0-.145-1.217C537.627,353.316,536.1,353.732,534.918,353.649Z" transform="translate(38.114 -77.494)" fill="#808184"/>
    <path id="Path_26098" data-name="Path 26098" d="M556.393,351.893a3.748,3.748,0,0,0,1.141-.961,2.7,2.7,0,0,0,.205-1.319,4.856,4.856,0,0,1,4.737-4.322,3.345,3.345,0,0,1-3.4-3.881,5.107,5.107,0,0,1,4.534-4.13,5.009,5.009,0,0,1-4.5-4.386,10.326,10.326,0,0,0-4.5,5.211c-1.979.209-3.79,1.831-5.058,3.583s-2.186,3.715-3.537,5.407a4.929,4.929,0,0,1-.974.976c-1.573,1.11-4.021,1.188-5.723,1.941,1.866,1.8,3.651,6.863,6.371,8,.7.292,9.406-.128,9.324-.02C554.646,355.941,554.529,353.28,556.393,351.893Z" transform="translate(44.35 -79.811)" fill="#808184"/>
    <path id="Path_26099" data-name="Path 26099" d="M554.168,361.118c-1.117-1.9-3.668-2.26-5.99-2.351a68.719,68.719,0,0,0-12.175.618l-.794,1.422c-.984,1.181.351,2.7,1.753,2.566s2.727-1.12,4.124-1.541c2.634-.794,5.051.488,7.637.632A10.124,10.124,0,0,0,554.168,361.118Z" transform="translate(42.908 -73.444)" fill="#808184"/>
    <path id="Path_26100" data-name="Path 26100" d="M562.228,358.053a6.177,6.177,0,0,0-4.621,2.091l2.28-.163-1.08.644A3.681,3.681,0,0,0,562.228,358.053Z" transform="translate(49.966 -73.413)" fill="#808184"/>
    <path id="Path_26101" data-name="Path 26101" d="M555.684,363.261a9.735,9.735,0,0,0,3.721,1.534l.063-.621q-.058-.792-.113-1.585Z" transform="translate(49.326 -72.518)" fill="#808184"/>
    <path id="Path_26102" data-name="Path 26102" d="M570.3,339.185c-1.723.578-2.327,3.321-4.065,3.785-.985.263-1.824-.372-2.785-.43-2.161-.133-3.907,2.487-4.641,4.711-.608,1.842-1.154,3.936-2.474,5.317a1.79,1.79,0,0,1,1.976,1.157c.343,1.243-.089,2.784.481,3.905l-.224,1c1.447-.257,1.486-2.439.989-3.711s-.546-3.415.9-3.756c1.319-.312,1.694,1.483,1.523,2.823s-.048,3.145,1.261,3.091c1.122-.047,1.859-1.617,1.627-2.684a14.262,14.262,0,0,0-1.462-2.794,2.545,2.545,0,0,1,.641-3.119c.837-.553,2.167-.492,2.478-1.423.363-1.089-1.4-1.225-2.3-.451s-1.635,1.987-2.719,2.125c-1.464.185-1.853-2.021-.813-3.236a5.771,5.771,0,0,1,4.145-1.642,8.963,8.963,0,0,0,4.334-.918C570.516,342.108,571.346,340.03,570.3,339.185Z" transform="translate(49.543 -78.222)" fill="#808184"/>
    <path id="Path_26103" data-name="Path 26103" d="M555.648,350a4.715,4.715,0,0,0,.92-.77A1.127,1.127,0,0,0,555.648,350Z" transform="translate(49.314 -74.967)" fill="#808184"/>
    <path id="Path_26104" data-name="Path 26104" d="M560.543,310.2l-2.375,1.146c-.8,2.751-1.586,5.82-.332,8.024,1.028,1.807,3.365,2.968,3.073,5.238a20.268,20.268,0,0,0-.593,2.546c.012.838,1.026,1.522,1.643.842a1.73,1.73,0,0,0,.321-1.21q-.008-2.4-.015-4.8a4.358,4.358,0,0,0,2.6-.165c.849-.407,1.51-1.565,1.044-2.239a1.584,1.584,0,0,0-.964-.533,10.056,10.056,0,0,0-3.675-.221c1.391-.04,3.507-1.013,3.016-2.244-.343-.861-1.723-.612-2.342-1.268-.748-.792,0-2.243.305-3.445S561.376,309.209,560.543,310.2Z" transform="translate(49.823 -83.588)" fill="#808184"/>
    <path id="Path_26105" data-name="Path 26105" d="M571.483,328.266a1.049,1.049,0,0,0-1.053-1.37,4.215,4.215,0,0,0-2.076.809l-5.151,3.137c1.29-1.052,2.85.129,3.5,1.4s1.4,2.876,2.923,2.719H567.44a2.638,2.638,0,0,0,2.978-.26c-.708-1.639-1.3-3.842.125-5.35A3.875,3.875,0,0,0,571.483,328.266Z" transform="translate(51.828 -79.744)" fill="#808184"/>
    <path id="Path_26106" data-name="Path 26106" d="M567.743,323.174l.419.668a5.472,5.472,0,0,0,.071-3.128,1.65,1.65,0,0,0-2.527-.677A2.065,2.065,0,0,0,567.743,323.174Z" transform="translate(52.565 -80.835)" fill="#808184"/>
    <path id="Path_26107" data-name="Path 26107" d="M561.811,327.078a1.553,1.553,0,0,0,1.586-.778l1.142-2.395-2.695.56Q561.828,325.772,561.811,327.078Z" transform="translate(51.365 -79.97)" fill="#808184"/>
    <path id="Path_26108" data-name="Path 26108" d="M621.139,353.753c-2.307-.872-4.893-2.436-4.462-5.115.143-.893.6-1.95.077-2.562a1.7,1.7,0,0,0-.72-.418,38.736,38.736,0,0,0-15.3-2.32,5.46,5.46,0,0,1-2.053-.145c-1.152-.412-1.765-1.662-2.927-2.051-1.541-.516-3.7,1.013-3.91,2.768-.124,1.036.187,2.319-.722,2.947a1.891,1.891,0,0,1-2-.185l-1.69-.925c-1.573-.858-3.307-2.644-2.073-4.358-3.011-.305-5.956,2.211-7.86,4.645,1.441-.873,3.553-1.017,3.905.8a10.122,10.122,0,0,0,.175,1.244,1.531,1.531,0,0,0,2.342.553,2.022,2.022,0,0,0,.789-2.051c.572.85,1.811,1.132,2.871,1.443,1.251.369,2.584,1.367,2.11,2.75,1.008.353,2.224-.227,3.356-.565s2.567-.267,2.832.794c.341,1.366-1.6,2.884-1.382,4.3.211,1.337,2.063,1.319,3.433.854s3.032-1.08,3.94-.188c.664.653.574,1.851,1.1,2.628.934,1.376,3.419.73,4.687-.772a10.72,10.72,0,0,0,1.965-5.286,3.691,3.691,0,0,1,4.43.1,11.578,11.578,0,0,1,1.434,2.074c2.154,3.145,6.6,3.583,10.628,3.8C626.136,355.865,623.446,354.626,621.139,353.753Z" transform="translate(56.584 -77.793)" fill="#808184"/>
    <path id="Path_26109" data-name="Path 26109" d="M573.407,356.088a2.959,2.959,0,0,0-3.5,2.022l2.482-1.064A.931.931,0,0,0,573.407,356.088Z" transform="translate(54.06 -73.779)" fill="#808184"/>
    <path id="Path_26110" data-name="Path 26110" d="M572.957,347.02a3.063,3.063,0,0,0-3.48,2.054l.806,1.583A3.153,3.153,0,0,0,572.957,347.02Z" transform="translate(53.916 -75.619)" fill="#808184"/>
    <path id="Path_26111" data-name="Path 26111" d="M576.3,347.79l1.559-.268c.928-.814.367-2.507-.766-2.314S575.38,347.291,576.3,347.79Z" transform="translate(56.035 -75.868)" fill="#808184"/>
    <path id="Path_26112" data-name="Path 26112" d="M573.726,341.037q-.052-1.052-.1-2.106l-2.578.444a2.04,2.04,0,0,0,2.1,2.965Z" transform="translate(54.367 -77.122)" fill="#808184"/>
    <path id="Path_26113" data-name="Path 26113" d="M620.586,339.672c-3.861-1.189-12.291,2.089-10.176,7.488a5.658,5.658,0,0,1-.892.443l13.493-3.756a1.838,1.838,0,0,1,1.383-1.017A7.583,7.583,0,0,0,620.586,339.672Z" transform="translate(67.242 -77.358)" fill="#808184"/>
    <path id="Path_26114" data-name="Path 26114" d="M628.158,350.473c-.528-3.016-5.554-3.661-5.639-5.964a9.73,9.73,0,0,1,.169-1.134c.1-1.069-1-1.571-2.009-1.385C623.092,345.415,624.584,350.233,628.158,350.473Z" transform="translate(70.957 -76.906)" fill="#808184"/>
    <path id="Path_26115" data-name="Path 26115" d="M609.822,345.561l-1.218.339A5.16,5.16,0,0,0,609.822,345.561Z" transform="translate(66.938 -75.639)" fill="#808184"/>
    <path id="Path_26116" data-name="Path 26116" d="M623.431,376.066a34.376,34.376,0,0,1-2.611-7.473q-1.6-6-3.193-12a52.366,52.366,0,0,0-6.617,21.092,9.019,9.019,0,0,1-2.275-6.124,13.2,13.2,0,0,1-10.029-1.086c1.6-.405,1.8-3.32.224-3.377l2.49-2.835a7.2,7.2,0,0,1-8.333-2.895q.282,1.887.565,3.773c-1.2.576-2.6,1-3.629.464a1.836,1.836,0,0,1,.009-3.067q-2.135.674-4.269,1.349,1.054,2.811,2.11,5.624a10.845,10.845,0,0,0-6.359,3.245l-1.215-3.685a8.123,8.123,0,0,0-1.574,4.54c-4.806-1.793-10.109,9.447-14.6,7.093,2.618,1.19,3.317,5.1,1.409,7.872a38.52,38.52,0,0,0-4.9,1.074c-2.115,1.089-2.624,3.365-4.581,4.345-4.184,2.1-7.585-.365-9.8,5.157-.748,1.863.405,3.483.109,5.194-.42,2.436-1.9,3.072-2.307,5.551-.89,5.445,1.891,12.157,1.33,18.053-.189,1.981-.966,4.544-2.919,5.031a10.88,10.88,0,0,0,4.454,1.854c1.785-3.881,6.02-6.787,9.953-6.829a23.794,23.794,0,0,0,4.2.036,12.448,12.448,0,0,0,3.229-1.269l11.918-6c1.977-1,4.044-2.017,6.1-2.066,4.8-.117,7.213,4.8,8.782,9.115q1.422-2.327,2.84-4.655c1.052,2.327,1.983,5.3.785,7.757,1.3-1.193,3.753-1.133,4.694.265,1.182,1.755.7,4.338.177,6.661a14.333,14.333,0,0,1,10.1,3.716q-.006-1.418-.013-2.834c1.174-1.307,3.411-1.2,4,.2a9.1,9.1,0,0,0,.47-4.282l7.409-1.7c-1.277-3.26.68-7.936,4.138-9.888a9.868,9.868,0,0,0-1.469-6.11c2.215.66,4.977-.722,6.724-2.75a18.125,18.125,0,0,0,3.371-7.041,55.107,55.107,0,0,0,2.144-15.179L627.527,381.6A31.545,31.545,0,0,1,623.431,376.066Z" transform="translate(44.925 -88.23)" fill="#808184"/>
    <path id="Path_26117" data-name="Path 26117" d="M581.862,412.365a2.457,2.457,0,0,0-.741,1.142A5.3,5.3,0,0,0,581.862,412.365Z" transform="translate(57.791 -69.671)" fill="#808184"/>
    <path id="Path_26118" data-name="Path 26118" d="M589.131,425.077a7.231,7.231,0,0,1-1.241,5.091c1.517-.5,2.655,1,2.823,2.49.165,1.475-.184,3.1.254,4.473a3.713,3.713,0,0,0,3.269-1.579,3.223,3.223,0,0,0,.145-3.677c1.433.028,2.79-1.507,3.12-2.988a8.135,8.135,0,0,0-.488-4.216C594.543,426.5,591.183,426.673,589.131,425.077Z" transform="translate(60.044 -65.576)" fill="#808184"/>
    <path id="Path_26119" data-name="Path 26119" d="M590.276,434.076c-.007-.017-.005-.037-.012-.055-.085-.009-.176.009-.259-.008Z" transform="translate(60.748 -62.466)" fill="#808184"/>
    <path id="Path_26120" data-name="Path 26120" d="M636.56,432.033c-1.5.758-3.1.433-4.657.429s-3.512.624-4.118,2.187c-.451,1.165.049,2.435-.573,3.543-.559.994-1.746,1.4-2.734,1.946-7.581,4.216,3.207,14.2,6.615-1.2.68-3.069,4.374-5.532,7.122-4.749q.194-1.25.389-2.5c2.086-.3,3.9-2.318,4.645-4.4a15.945,15.945,0,0,0,.556-6.286C639.715,422.776,640.571,430,636.56,432.033Z" transform="translate(71.341 -66.794)" fill="#808184"/>
    <path id="Path_26121" data-name="Path 26121" d="M642.523,403.1c.032-.428.079-.858.145-1.29A3.683,3.683,0,0,0,642.523,403.1Z" transform="translate(78.224 -73.183)" fill="#808184"/>
    <path id="Path_26122" data-name="Path 26122" d="M649.543,414.634a2.185,2.185,0,0,1-1.293-3.248,4.071,4.071,0,0,1-2.179,1.625c-.861.129-1.583-.945-.913-1.6a4.549,4.549,0,0,0,2.908-2.1,2.392,2.392,0,0,0-.362-3.081,8.4,8.4,0,0,0-2.332-.638,3.069,3.069,0,0,1-2.056-2.81c-.216,2.876.271,5.668.276,8.529.008,3.287-.816,7.032-3.453,9.458l5.462-.612c-4.719,10.841,4.853,4.547,3.82,1.475-.239-.709-.828-1.2-1.083-1.9-.457-1.251.3-2.891,1.418-3.94a8.321,8.321,0,0,1,1.809-1.255A3.869,3.869,0,0,1,649.543,414.634Z" transform="translate(77.432 -72.861)" fill="#808184"/>
    <path id="Path_26123" data-name="Path 26123" d="M648.709,411.838a8.9,8.9,0,0,0,2.1-.954C650.1,411.175,649.39,411.474,648.709,411.838Z" transform="translate(80.285 -70.163)" fill="#808184"/>
    <path id="Path_26124" data-name="Path 26124" d="M638.856,373.357c-1.529-.678-2.066-2.5-3.009-3.869s-3.1-2.228-4.456-.8c.353,1.973,1.762,3.392,3.117,4.712,1.889,1.838,4.791,3.705,7.291,1.838l-1.093.276C641.45,374.511,639.869,373.807,638.856,373.357Z" transform="translate(74.521 -71.956)" fill="#808184"/>
    <path id="Path_26125" data-name="Path 26125" d="M639.513,361.795l1.048.129a16.266,16.266,0,0,1-1.06-6.772C637.374,357.017,637.381,360.689,639.513,361.795Z" transform="translate(76.691 -74.279)" fill="#808184"/>
    <path id="Path_26126" data-name="Path 26126" d="M631.088,352.195l1.719,1.246c.964.295,1.329-1.537.876-2.427a13.406,13.406,0,0,0-4.129-4.829C628.138,348.427,628.913,351.464,631.088,352.195Z" transform="translate(73.672 -76.016)" fill="#808184"/>
    <path id="Path_26127" data-name="Path 26127" d="M564.749,357.868a4.282,4.282,0,0,0,.219,4.1l1.037.355a1.069,1.069,0,0,0,1.417-.634A4.671,4.671,0,0,0,564.749,357.868Z" transform="translate(52.204 -73.597)" fill="#808184"/>
    <path id="Path_26128" data-name="Path 26128" d="M569.128,289.141a2.285,2.285,0,0,0-2.471,1.8,1.331,1.331,0,0,0,2.107,1.2l1.722-.582A1.984,1.984,0,0,0,569.128,289.141Z" transform="translate(52.974 -86.608)" fill="#808184"/>
    <path id="Path_26129" data-name="Path 26129" d="M573.1,284.611c-1.291.223-1.907,2.41-.821,2.916l1.617-.279C574.99,286.368,574.393,284.389,573.1,284.611Z" transform="translate(54.663 -87.452)" fill="#808184"/>
  </g>
</svg>
