<svg xmlns="http://www.w3.org/2000/svg" xmlns:xlink="http://www.w3.org/1999/xlink" width="287.951" height="53.725" viewBox="0 0 287.951 53.725">
  <defs>
    <linearGradient id="linear-gradient" x1="0.5" x2="0.5" y2="1" gradientUnits="objectBoundingBox">
      <stop offset="0" stop-color="#fef78a"/>
      <stop offset="0.498" stop-color="#dbb311"/>
      <stop offset="1" stop-color="#f3b50e"/>
    </linearGradient>
  </defs>
  <g id="client-onepoint" transform="translate(-6.053 -74.16)">
    <g id="_1d1d1bff" data-name="#1d1d1bff">
      <path id="Path_71929" data-name="Path 71929" d="M261.28,74.18q6.135-.03,12.28-.02v8.7h8.16c.02,3.31.03,6.63.04,9.94-2.74.01-5.46.02-8.19.02q-.03,12.435.01,24.88-6.165.03-12.31,0c.04-8.29.02-16.58.01-24.87-1.38-.01-2.76-.03-4.13-.04q0-4.965.04-9.92l4.1-.03Q261.29,78.52,261.28,74.18Z" fill="url(#linear-gradient)"/>
      <path id="Path_71930" data-name="Path 71930" d="M20.42,82.74c8.9-2.28,19.54,1.85,23.06,10.68a17.9,17.9,0,0,1-5.88,21.22c-9.42,7.26-25.48,4.16-30.09-7.26C2.9,97.36,9.78,84.89,20.42,82.74m1.82,10.53c-5.65,2.54-5.37,11.93.34,14.25,4.52,2.46,10.36-1.56,10.2-6.57C33.55,95.46,27.29,90.5,22.24,93.27Z" fill="#eaeff4"/>
      <path id="Path_71931" data-name="Path 71931" d="M59.72,87.6c2.85-3.24,6.82-5.94,11.35-5.39,5.88-.17,10.78,5.03,11.01,10.77.26,8.24.03,16.49.11,24.73q-6.18,0-12.35-.01c-.08-6.57.12-13.15-.07-19.72-.07-2.52-2.01-5.12-4.74-4.86a4.835,4.835,0,0,0-5.17,4.81c-.19,6.58-.03,13.18-.05,19.77q-6.225.03-12.45,0c.05-11.61,0-23.23.03-34.84H59.78Q59.765,85.23,59.72,87.6Z" fill="#eaeff4"/>
      <path id="Path_71932" data-name="Path 71932" d="M89.95,86.95c7.37-7.33,21.84-6.3,27.1,3.04,2.56,4.05,2.79,8.98,2.79,13.63-7.9.1-15.79-.06-23.69.08.99,2.24,2.36,4.7,4.96,5.27,3.85,1.41,7.78-.55,10.7-3,2.24,1.85,4.48,3.69,6.75,5.51-6.58,8.58-20.47,9.38-28.47,2.44-7.57-6.82-7.47-20.02-.14-26.97m5.96,10.43q6.315.135,12.62.02c-.76-3.04-2.84-6.54-6.47-6.17C98.54,91.05,96.86,94.57,95.91,97.38Z" fill="#eaeff4"/>
      <path id="Path_71933" data-name="Path 71933" d="M134.68,87.52c2.62-2.98,6.17-5.53,10.33-5.32,7.04-.45,13.33,5.05,15.09,11.66,1.91,7.22.76,16-5.14,21.12-5.69,5.11-15.41,4.58-20.28-1.44.11,4.77.04,9.55.08,14.33q-6.15.03-12.3,0c-.01-14.97.07-29.93-.04-44.9,4.1-.21,8.21-.08,12.32-.11-.02,1.55-.03,3.11-.06,4.66m3.66,5.77c-5.45,2.98-4.96,12.23.87,14.5,4.93,2.2,10.21-2.81,9.63-7.81C149.06,94.83,142.98,90.34,138.34,93.29Z" fill="url(#linear-gradient)"/>
      <path id="Path_71934" data-name="Path 71934" d="M176.49,82.75c4.73-.98,9.92-.81,14.28,1.47a17.838,17.838,0,0,1,2.32,30.89c-5.39,3.74-12.59,4.29-18.72,2.24-7.15-2.46-12.54-9.68-12.1-17.35-.07-8.19,6.4-15.43,14.22-17.25m1.75,10.57c-5.48,2.62-5.26,11.67.29,14.11,4.54,2.66,10.49-1.41,10.41-6.47C189.67,95.43,183.32,90.44,178.24,93.32Z" fill="url(#linear-gradient)"/>
      <path id="Path_71935" data-name="Path 71935" d="M232.65,87.66c2.85-3.29,6.87-6.01,11.44-5.45,5.85-.15,10.77,5.05,10.91,10.78.34,8.23.04,16.47.14,24.71-4.13.02-8.25.01-12.37.01-.11-6.87.2-13.75-.14-20.6-.34-3.62-4.94-5.14-7.72-3.17a5.7,5.7,0,0,0-2.18,4.98c-.07,6.26-.01,12.52,0,18.78q-6.18.03-12.37,0c.05-11.61-.01-23.22.04-34.83,4.1-.02,8.2-.01,12.31-.01Z" fill="url(#linear-gradient)"/>
      <path id="Path_71936" data-name="Path 71936" d="M203.82,82.87q6.165-.03,12.33,0c.03,11.61.01,23.22.02,34.83q-6.18.015-12.35.01Q203.8,100.28,203.82,82.87Z" fill="url(#linear-gradient)"/>
    </g>
    <g id="_0091cdff" data-name="#0091cdff">
      <path id="Path_71937" data-name="Path 71937" d="M284.17,103.96c4.92-1.91,10.76,2.83,9.71,8.08-.27,5.88-8.45,8.63-12.49,4.53C277.23,113.08,278.83,105.35,284.17,103.96Z" fill="url(#linear-gradient)"/>
    </g>
  </g>
</svg>
