<svg width="22" height="22" viewBox="0 0 22 22" fill="none" xmlns="http://www.w3.org/2000/svg">
<g clip-path="url(#clip0_21725_2052)">
<path d="M11 22C17.0751 22 22 17.0751 22 11C22 4.92487 17.0751 0 11 0C4.92487 0 0 4.92487 0 11C0 17.0751 4.92487 22 11 22Z" fill="#C3A634"/>
<path fill-rule="evenodd" clip-rule="evenodd" d="M9.108 10.0444H12.0739V11.616H9.108V14.9284H10.9787C11.7191 14.9284 12.3248 14.8287 12.7964 14.6279C13.2681 14.4279 13.6379 14.1508 13.9068 13.7961C14.1749 13.442 14.3577 13.0261 14.454 12.5483C14.5503 12.0704 14.5984 11.5548 14.5984 11C14.5984 10.4452 14.5503 9.92956 14.454 9.45175C14.3689 8.99958 14.1818 8.5728 13.9068 8.20394C13.6379 7.84919 13.2674 7.57212 12.7964 7.37206C12.3248 7.17131 11.7191 7.07163 10.9787 7.07163H9.108V10.0451V10.0444ZM7.20638 11.616H6.1875V10.0451H7.20638V5.5H11.7088C12.5407 5.5 13.2605 5.64437 13.8689 5.93106C14.4774 6.21912 14.9738 6.61169 15.3594 7.11013C15.7444 7.60787 16.0311 8.19088 16.2188 8.85844C16.4065 9.526 16.5 10.2403 16.5 11C16.5047 11.7234 16.4099 12.444 16.2181 13.1416C16.0311 13.8084 15.7444 14.3921 15.3588 14.8899C14.9738 15.3883 14.4774 15.7809 13.8689 16.0689C13.2605 16.3563 12.54 16.5 11.7088 16.5H7.20638V11.616Z" fill="white"/>
<path d="M9.95981 0.0500424C12.2915 -0.175609 14.691 0.365955 16.6917 1.592C18.5797 2.72777 20.1066 4.44273 21.0167 6.45103C21.9795 8.54206 22.2353 10.949 21.784 13.198C21.3326 15.462 20.1367 17.5681 18.4293 19.1176C16.7218 20.6972 14.5029 21.6976 12.1862 21.9458C10.6969 22.0812 9.17003 21.9759 7.7409 21.517C5.29634 20.7649 3.13761 19.1251 1.75361 16.9664C0.587744 15.1762 -0.0290361 13.0401 0.00105078 10.9039C0.0085725 8.45933 0.87357 6.03733 2.40048 4.13434C4.23578 1.82517 7.02634 0.313303 9.95981 0.0500424Z" fill="#988430"/>
<path d="M10.7873 0.343758C12.7429 0.306149 14.7136 0.810104 16.3985 1.80297C18.2187 2.87106 19.7155 4.48823 20.6181 6.39874C21.596 8.38448 21.8818 10.6936 21.5057 12.8674C21.0093 15.7858 19.2116 18.4485 16.7068 20.0131C14.9693 21.1263 12.8933 21.7054 10.8324 21.6603C8.81656 21.6453 6.8233 21.021 5.14596 19.9077C3.43101 18.772 2.03949 17.1398 1.22714 15.2518C0.29445 13.1232 0.0913636 10.6786 0.663014 8.42208C1.21962 6.13548 2.58105 4.06701 4.42387 2.62284C6.22157 1.18619 8.49313 0.388888 10.7873 0.343758Z" fill="#7A6A2A"/>
<path d="M6.73301 1.47122C8.56831 0.63631 10.6518 0.373048 12.6451 0.68896C14.7211 1.01239 16.6918 1.99022 18.2111 3.44943C20.069 5.20951 21.2424 7.66912 21.4154 10.2265C21.6486 13.1374 20.5805 16.1235 18.5421 18.2146C18.512 17.6053 18.5045 17.0036 18.497 16.3943C18.4895 15.943 18.3917 15.5067 18.3541 15.0554C18.3616 14.8975 18.3766 14.7395 18.3842 14.5891C18.4067 14.1679 18.1811 13.7768 18.2412 13.348C18.2939 12.7538 17.9855 12.2122 17.8275 11.6481C17.6771 11.257 17.6846 10.8207 17.5342 10.4296C17.4289 8.9102 16.8347 7.36825 15.6839 6.33777C15.7215 6.28512 15.7967 6.17982 15.8343 6.12716C15.8794 6.22495 15.9321 6.32273 15.9847 6.42051C16.2555 6.11964 16.2931 5.69842 16.3759 5.31482C16.5263 4.63786 16.421 3.93834 16.3082 3.26139C16.2179 2.91539 16.1502 2.51674 15.8569 2.27604C15.5485 2.09552 15.0144 2.088 14.8339 2.44904C14.8264 2.47161 14.8189 2.50922 14.8113 2.53178C14.6759 2.76495 14.4879 2.96804 14.2547 3.10343C13.841 3.35917 13.6154 3.84808 13.1716 4.06621C12.8933 4.15647 12.615 4.00604 12.3292 4.03612C11.7951 4.08878 11.2611 4.11886 10.7421 4.2693C10.2532 4.19408 9.76426 4.11134 9.27535 4.01356C9.27535 3.97595 9.28287 3.90826 9.28287 3.87065C9.05722 3.65252 8.86166 3.41182 8.77892 3.10343C8.62848 2.5393 8.28248 1.99022 7.75596 1.71191C7.68075 1.68183 7.60553 1.65174 7.53031 1.62917C7.48518 1.68183 7.44005 1.73448 7.39492 1.78713C7.37988 1.82474 7.34227 1.90748 7.32722 1.94509C7.20688 2.20835 7.23696 2.5017 7.22944 2.78C7.22192 3.50208 7.1467 4.23921 6.83831 4.90864C6.3494 4.90864 5.85297 4.90112 5.36405 4.90864C5.26627 5.12677 5.30388 5.37499 5.29636 5.60817C4.50658 6.33777 4.19067 7.4209 4.04023 8.45138C4.04023 8.53411 4.04023 8.60933 4.04775 8.69207C4.04775 8.72216 4.04775 8.78985 4.05528 8.81994C3.70928 9.27876 3.6491 9.87298 3.55884 10.4296C3.68671 10.4221 3.81458 10.4145 3.94245 10.407C3.8221 10.4221 3.70928 10.4296 3.58893 10.4446C3.56637 10.5725 3.55132 10.6928 3.53628 10.8207C3.6491 10.7756 3.76193 10.738 3.87476 10.6928H3.93493C3.79954 10.7455 3.66415 10.8132 3.53628 10.8809C3.53628 10.9636 3.5438 11.1216 3.5438 11.1968C3.70176 11.1141 3.85219 11.0388 4.01015 10.9636L3.94997 11.0238C3.81458 11.1065 3.6491 11.1592 3.5438 11.2795C3.5438 11.5654 3.58893 11.8587 3.62654 12.1445C3.73184 12.7914 3.95749 13.4308 4.28845 13.9949C4.28093 14.4086 4.19067 14.8298 3.94245 15.1683C4.01015 15.2961 4.12297 15.4165 4.13049 15.5669C4.08536 15.8227 3.88228 16.0408 3.91989 16.3191C3.97254 16.981 3.73184 17.6203 3.44602 18.1995C1.94919 16.6425 0.963849 14.6117 0.662981 12.4755C0.377155 10.4822 0.678024 8.40625 1.5355 6.57847C2.58854 4.337 4.46897 2.48665 6.73301 1.47122Z" fill="#BA9F33"/>
<path d="M7.37988 1.78784C7.42501 1.73519 7.47014 1.68253 7.51527 1.62988C7.59049 1.65997 7.6657 1.68254 7.74092 1.71262C7.86879 2.10375 8.06435 2.5024 8.01922 2.93114C8.00418 3.21697 7.94401 3.51784 8.08692 3.78862C8.14709 3.93905 8.29753 4.01427 8.4254 4.10453C8.35018 4.1647 8.27496 4.22488 8.19222 4.27753C7.86127 4.41292 7.59801 4.65361 7.34979 4.90935C7.25201 4.90935 7.15423 4.90935 7.06396 4.90935C7.59049 4.27753 7.82366 3.44262 7.82366 2.63027C7.82366 2.2918 7.56792 2.04358 7.37988 1.78784Z" fill="#C79C3B"/>
<path d="M7.74084 1.71973C8.26736 1.99803 8.62089 2.54712 8.7638 3.11124C8.84654 3.41964 9.04962 3.66033 9.26775 3.87846C9.26775 3.91607 9.26023 3.98376 9.26023 4.02137C8.98193 3.93111 8.64345 3.87094 8.42532 4.11163C8.29745 4.02137 8.14702 3.94616 8.08684 3.79572C7.94393 3.53246 8.00411 3.22407 8.01915 2.93825C8.06428 2.50951 7.86871 2.11838 7.74084 1.71973Z" fill="#B58634"/>
<path d="M7.37992 1.78711C7.56797 2.03533 7.8237 2.28354 7.81618 2.62202C7.81618 3.43437 7.58301 4.26928 7.05649 4.9011C7.01888 4.9011 6.95118 4.9011 6.91357 4.9011C7.13923 4.5551 7.36488 4.17149 7.39496 3.74276C7.44009 3.14102 7.25205 2.5468 7.31223 1.93754C7.32727 1.90746 7.36488 1.83224 7.37992 1.78711Z" fill="#DFC068"/>
<path d="M7.21437 2.78022C7.22189 2.50192 7.19933 2.20857 7.31215 1.94531C7.25198 2.54705 7.44002 3.14879 7.39489 3.75053C7.37233 4.17926 7.14667 4.55535 6.9135 4.90887H6.82324C7.13163 4.24696 7.20685 3.50983 7.21437 2.78022Z" fill="#A78F33"/>
<path d="M14.8188 2.44995C14.9994 2.08891 15.5334 2.08891 15.8418 2.27695C16.1276 2.51764 16.2028 2.9163 16.2931 3.26229C16.4059 3.93925 16.5112 4.63877 16.3608 5.31572C16.2781 5.69933 16.2405 6.11303 15.9697 6.42142C15.917 6.32363 15.8644 6.23337 15.8192 6.12807C15.7666 5.97764 15.729 5.8272 15.6763 5.67677C15.8644 5.26307 15.9546 4.81177 16.0073 4.36047C16.0524 3.96181 15.7816 3.63086 15.5184 3.3676C15.383 2.99903 15.0972 2.72073 14.8188 2.44995Z" fill="#A17C34"/>
<path d="M14.7963 2.53196C14.8038 2.50939 14.8113 2.47178 14.8188 2.44922C15.0971 2.72 15.383 2.9983 15.5259 3.36687C15.5183 3.47217 15.4958 3.59252 15.3754 3.63765C15.052 3.80313 14.6834 3.92348 14.4503 4.21682C14.2848 4.42743 13.9689 4.54026 13.9463 4.8336C13.9839 4.85617 14.0516 4.90882 14.0817 4.93139C14.0516 4.97652 13.9839 5.05925 13.9538 5.09686C13.999 5.14199 14.0366 5.1796 14.0817 5.22473C14.2547 5.04421 14.5255 5.02917 14.7436 4.94643C14.706 5.03669 14.6759 5.11943 14.6383 5.20969C14.7361 5.18712 14.8339 5.16456 14.9241 5.14952C14.8038 5.28491 14.6684 5.40525 14.533 5.5256C14.518 5.51808 14.4879 5.50304 14.4728 5.49552C14.2998 5.41278 14.1343 5.29243 13.9388 5.28491C13.9313 5.25482 13.9087 5.19465 13.9012 5.17208C13.7959 5.16456 13.683 5.14199 13.5853 5.11191C13.6153 5.03669 13.668 4.9013 13.6981 4.82608C13.6379 4.85617 13.5176 4.90882 13.4574 4.93891C13.6229 4.67565 13.7733 4.40487 13.9313 4.13408C13.9388 4.11152 13.9689 4.07391 13.9764 4.05887C14.1945 3.65269 14.5104 3.32174 14.7286 2.91556C14.8113 2.80274 14.8038 2.66735 14.7963 2.53196Z" fill="#B89844"/>
<path d="M14.7963 2.53223C14.8038 2.66762 14.8113 2.80301 14.7286 2.91583C14.5105 3.31449 14.187 3.65296 13.9764 4.05914C13.9764 3.72066 14.014 3.37466 14.2397 3.10388C14.4729 2.96849 14.6609 2.7654 14.7963 2.53223Z" fill="#CBA94C"/>
<path d="M13.1566 4.0663C13.6004 3.84065 13.826 3.35925 14.2397 3.10352C14.014 3.3743 13.9689 3.7203 13.9764 4.05877C13.9689 4.08134 13.9388 4.11895 13.9313 4.13399C13.9388 4.00612 13.9313 3.87073 13.9087 3.74286C13.6981 4.17912 13.465 4.60034 13.149 4.9689C12.9685 4.91625 12.773 4.90121 12.5849 4.90121C12.6902 4.69812 12.8256 4.5176 12.9685 4.33708C12.2314 4.16408 11.4717 4.32956 10.7271 4.26186C11.246 4.11143 11.7801 4.08886 12.3141 4.02869C12.6 4.00612 12.8783 4.16408 13.1566 4.0663Z" fill="#AC8132"/>
<path d="M15.5258 3.36719C15.7891 3.63045 16.0599 3.9614 16.0148 4.36006C15.9621 4.81136 15.8718 5.26266 15.6838 5.67636C15.5484 5.78918 15.4055 5.89449 15.2701 5.99979C15.2024 5.95466 15.1347 5.90201 15.067 5.85688L15.0369 5.83431C15.2551 5.37549 15.6011 4.93923 15.6236 4.41271C15.2175 4.42775 14.8038 4.49545 14.4126 4.62332C14.2547 4.66092 14.1719 4.81136 14.0817 4.93923C14.0441 4.91666 13.9764 4.86401 13.9463 4.84145C13.9689 4.55562 14.2923 4.43527 14.4502 4.22466C14.6909 3.93132 15.052 3.81097 15.3754 3.64549C15.4882 3.60036 15.5183 3.48001 15.5258 3.36719Z" fill="#927238"/>
<path d="M13.9087 3.75098C13.9237 3.87885 13.9388 4.00672 13.9312 4.14211C13.7733 4.41289 13.6153 4.67615 13.4574 4.94693C13.5175 4.91684 13.6379 4.86419 13.6981 4.8341C13.668 4.9018 13.6153 5.04471 13.5852 5.11993C13.4423 5.0748 13.2994 5.02215 13.1565 4.98454C13.4649 4.60845 13.6981 4.17971 13.9087 3.75098Z" fill="#8C6228"/>
<path d="M8.42543 4.10433C8.65109 3.87116 8.98956 3.92381 9.26035 4.01407C9.74926 4.11186 10.2382 4.18707 10.7271 4.26981C11.4717 4.33751 12.2314 4.17203 12.9686 4.34503C12.8256 4.51803 12.6902 4.70607 12.5849 4.90916C11.3815 4.90916 10.1705 4.91668 8.967 4.90916C8.91435 4.73616 8.90682 4.52555 8.74887 4.41272C8.59091 4.2999 8.3803 4.2999 8.19226 4.28486C8.275 4.22468 8.35022 4.16451 8.42543 4.10433Z" fill="#D2A83E"/>
<path d="M7.34973 4.90917C7.59795 4.66095 7.86121 4.41273 8.19216 4.27734C8.3802 4.29991 8.59081 4.29239 8.74877 4.40521C8.90672 4.51804 8.91425 4.73617 8.9669 4.90165C8.42534 4.90917 7.89129 4.90917 7.34973 4.90917Z" fill="#DCBA5A"/>
<path d="M14.4052 4.61588C14.7963 4.48801 15.2025 4.42032 15.6162 4.40527C15.5936 4.93179 15.2476 5.36805 15.0295 5.82688C14.8715 5.71405 14.706 5.61627 14.533 5.51849C14.6759 5.40566 14.8038 5.27779 14.9242 5.1424C14.8264 5.16497 14.7286 5.18001 14.6383 5.20257C14.6759 5.11231 14.706 5.02957 14.7436 4.93931C14.518 5.02205 14.2547 5.0371 14.0817 5.21762C14.0366 5.17249 13.999 5.13488 13.9539 5.08975C13.9839 5.04462 14.0516 4.96188 14.0817 4.92427C14.1645 4.80392 14.2472 4.65349 14.4052 4.61588Z" fill="#543E26"/>
<path d="M5.34902 4.90862C5.83793 4.90109 6.33437 4.90862 6.82328 4.90862H6.91354C6.95115 4.90862 7.01884 4.90862 7.05645 4.90862C7.15423 4.90862 7.25202 4.90862 7.34228 4.90862C7.88384 4.90862 8.41788 4.90862 8.95945 4.90862C10.1629 4.91614 11.3739 4.90862 12.5774 4.90862C12.7654 4.90862 12.961 4.92366 13.1415 4.97631C13.2844 5.01392 13.4274 5.05905 13.5703 5.1117C13.6756 5.14931 13.7809 5.16435 13.8862 5.17188C13.8937 5.20196 13.9163 5.25462 13.9238 5.2847C14.1193 5.29222 14.2848 5.40505 14.4578 5.49531C14.345 5.78114 14.1193 5.99175 13.9087 6.20988C14.0968 6.31518 14.2773 6.42048 14.4428 6.54835C14.6534 6.33022 14.8565 6.08953 15.052 5.85635C15.1197 5.90148 15.1874 5.95414 15.2551 5.99927C15.398 6.10457 15.5334 6.2174 15.6688 6.33774C16.8272 7.37574 17.4139 8.91017 17.5192 10.4296C17.5342 10.6251 17.5342 10.8282 17.5417 11.0313C17.5342 11.8211 17.4665 12.6184 17.2559 13.3856C17.113 13.9196 16.9099 14.4386 16.6316 14.9125C16.436 15.2134 16.2254 15.5067 15.9697 15.7625C15.8042 15.9355 15.6312 16.1009 15.4432 16.2438C15.3604 16.1987 15.2702 16.1536 15.1874 16.1085C15.0445 16.1912 14.9091 16.3191 14.7286 16.3191C14.4954 16.3341 14.2773 16.4394 14.0441 16.477C14.2698 16.1385 14.7286 15.8903 14.6534 15.424C14.5255 15.4315 14.3976 15.439 14.2773 15.439C14.3224 15.2735 14.36 15.1081 14.3977 14.9501C14.3525 14.92 14.2698 14.8674 14.2322 14.8373C14.3751 14.6793 14.518 14.5214 14.6534 14.3559C14.3676 14.4236 14.1118 14.5665 13.841 14.6718C14.36 13.9121 14.8189 13.1148 15.195 12.2799C15.4131 11.7609 15.7064 11.2494 15.714 10.6778C15.7365 10.3092 15.4958 9.9933 15.4883 9.62474C15.4582 9.20352 15.4582 8.72213 15.1122 8.42126C14.5105 8.54161 13.9012 8.42878 13.307 8.36109C13.149 8.33852 12.9836 8.36861 12.8256 8.39117C12.7955 8.35357 12.7654 8.32348 12.7429 8.29339C12.5548 8.10535 12.3593 7.90978 12.1035 7.81952C11.8704 7.78191 11.6297 7.812 11.3965 7.812H11.3589C11.0956 7.69918 10.8248 7.54874 10.5315 7.60139C10.2833 7.62396 10.1404 7.84961 9.94479 7.96996C9.74171 8.09783 9.54614 8.23322 9.38818 8.42126C9.59127 8.76726 9.95231 8.9553 10.3284 9.05308C10.3134 9.27874 10.2983 9.50439 10.2757 9.73004C10.0426 9.80526 9.83197 9.91808 9.6364 10.061C9.5311 9.83534 9.47845 9.58713 9.38066 9.35395C9.27536 9.21104 9.12492 9.10574 8.98201 8.98539C8.95192 9.08317 8.92184 9.18095 8.89175 9.27874C8.82406 9.31635 8.75636 9.35395 8.68114 9.39156C8.67362 9.21856 8.6661 9.05309 8.63601 8.88009C8.56832 8.5717 8.35019 8.33852 8.23736 8.0527C8.2524 7.75935 8.34267 7.47352 8.35019 7.18018C8.20727 7.24035 8.05684 7.293 7.91393 7.3607C7.71836 7.43591 7.62058 7.64652 7.4551 7.75935C7.28962 7.83457 7.11662 7.85713 6.94362 7.90226L6.96619 7.84209C7.11663 7.7067 7.16176 7.51113 7.19936 7.32309C7.10158 7.36822 7.0038 7.41335 6.90602 7.466C6.78567 7.293 6.96619 7.18018 7.07149 7.06735C6.91354 6.92444 6.70293 6.81161 6.49232 6.88683C6.13128 7.0147 5.97332 7.41335 5.93571 7.76687C5.78528 7.76687 5.64237 7.77439 5.49193 7.77439C5.55211 7.66909 5.60476 7.56379 5.66493 7.45096C5.58971 7.293 5.42424 7.22531 5.2738 7.17265C5.28133 6.76648 5.2738 6.36783 5.2738 5.96166C5.2738 5.84131 5.28133 5.72849 5.28133 5.60814C5.28885 5.37496 5.25124 5.13427 5.34902 4.90862Z" fill="#F3EBDB"/>
<path d="M14.4729 5.49609C14.4879 5.50362 14.518 5.51866 14.533 5.52618C14.706 5.61644 14.8715 5.72175 15.0295 5.83457L15.0596 5.85714C14.864 6.09031 14.6684 6.331 14.4503 6.54913C14.2848 6.42126 14.0968 6.31596 13.9163 6.21066C14.1344 5.99253 14.36 5.78192 14.4729 5.49609Z" fill="#DCDAD7"/>
<path d="M4.03266 8.45942C4.18309 7.42143 4.499 6.34582 5.28878 5.61621C5.28878 5.73656 5.28878 5.84939 5.28126 5.96973C4.75474 6.51882 4.45387 7.24842 4.31096 7.98555C4.25831 8.23377 4.14548 8.46694 4.04018 8.70012C4.03266 8.61738 4.02513 8.53464 4.03266 8.45942Z" fill="#A78E32"/>
<path d="M15.2626 6.00019C15.4055 5.89489 15.5409 5.78958 15.6763 5.67676C15.7214 5.82719 15.7665 5.97763 15.8192 6.12806C15.7816 6.18071 15.7064 6.28602 15.6687 6.33867C15.5484 6.21832 15.4055 6.10549 15.2626 6.00019Z" fill="#B59544"/>
<path d="M4.31099 7.97774C4.4539 7.24061 4.75477 6.511 5.28129 5.96191C5.28129 6.36809 5.28882 6.76674 5.28129 7.17291C5.03308 7.38352 4.92025 7.72952 4.60434 7.85739C4.55921 8.07552 4.47647 8.28613 4.3486 8.46665C4.25834 8.58699 4.15303 8.69982 4.05525 8.82017C4.05525 8.79008 4.04773 8.72991 4.04773 8.6923C4.14551 8.46665 4.25082 8.23347 4.31099 7.97774Z" fill="#EBCC73"/>
<path d="M6.49987 6.87939C6.718 6.80418 6.92861 6.90948 7.07905 7.05991C6.97374 7.17274 6.7857 7.28556 6.91357 7.45856C7.01135 7.41343 7.10913 7.3683 7.20692 7.31565C7.16931 7.50369 7.12418 7.69926 6.97374 7.83465C6.77818 7.80456 6.57509 7.80456 6.37953 7.82713C6.39457 7.70678 6.40209 7.58643 6.43218 7.47361C6.52244 7.37583 6.65031 7.33069 6.76313 7.27052C6.69544 7.20282 6.63527 7.11257 6.545 7.06744C6.32687 7.12761 6.11627 7.29309 6.07866 7.52626C6.08618 7.63156 6.10122 7.73687 6.11627 7.84217C6.07866 7.84217 6.01096 7.83465 5.97335 7.83465H5.92822L5.94327 7.75943C5.98088 7.40591 6.13883 7.00726 6.49987 6.87939Z" fill="#D7D7D5"/>
<path d="M15.4506 7.03042C15.6312 6.97025 15.8192 6.91007 16.0072 6.85742C16.1501 7.13573 16.0975 7.4366 15.9546 7.70738C16.0223 7.70738 16.09 7.70738 16.1577 7.70738C16.1727 7.94055 16.1652 8.27151 15.8944 8.34672C15.744 8.00825 15.3754 7.81268 15.2852 7.44412C15.2927 7.28616 15.3905 7.15829 15.4506 7.03042Z" fill="#E6DED7"/>
<path d="M6.07861 7.52621C6.1087 7.29303 6.32683 7.12756 6.54496 7.06738C6.63522 7.11251 6.68787 7.20277 6.76309 7.27047C6.65026 7.33064 6.52239 7.37577 6.43213 7.47356C6.40205 7.58638 6.39453 7.70673 6.37948 7.82708C6.31179 7.8346 6.18392 7.84212 6.12374 7.84212C6.10118 7.73681 6.08613 7.63151 6.07861 7.52621Z" fill="#F5F2E6"/>
<path d="M7.91386 7.35337C8.05677 7.28568 8.2072 7.23303 8.35012 7.17285C8.3426 7.4662 8.25233 7.75202 8.23729 8.04537C8.35012 8.3312 8.56825 8.57189 8.63594 8.87276C8.66603 9.03824 8.67355 9.21124 8.68107 9.38424C8.74877 9.34663 8.81646 9.30902 8.89168 9.27141C8.92177 9.17363 8.95185 9.07585 8.98194 8.97806C9.11733 9.09841 9.26777 9.20372 9.38059 9.34663C9.4859 9.57228 9.53103 9.82802 9.63633 10.0537C9.8319 9.91076 10.05 9.79793 10.2757 9.72271C10.2982 9.49706 10.3133 9.27141 10.3283 9.04576C10.3283 9.02319 10.3283 8.97054 10.3283 8.94798C10.1929 8.83515 9.98985 8.76746 9.96729 8.56437C9.95224 8.30863 10.1102 8.0905 10.2907 7.93255C10.3434 7.94007 10.3885 7.95511 10.4412 7.96263C10.5389 7.95511 10.5841 7.89494 10.5841 7.78963C10.7119 7.78211 10.8473 7.78963 10.9752 7.79715C10.8398 7.97767 10.6743 8.15067 10.4487 8.18828C10.4487 8.30863 10.4487 8.42898 10.4562 8.55685C10.4487 8.67719 10.4336 8.80506 10.4261 8.92541V9.00815C10.4261 9.3015 10.4261 9.58732 10.4336 9.88067C10.4336 11.3324 10.4261 12.7765 10.4336 14.2207C10.4412 14.2508 10.4562 14.3034 10.4637 14.3335C11.1181 14.2884 11.8552 14.4915 12.4269 14.0703C13.2167 13.4986 13.5476 12.5058 13.6304 11.5731C13.7206 10.4674 13.5251 9.28646 12.8406 8.39137C12.9985 8.36128 13.164 8.33872 13.322 8.36128C13.9237 8.42898 14.533 8.54933 15.1272 8.42146C15.4732 8.72233 15.4732 9.20372 15.5033 9.62493C15.5183 9.9935 15.7515 10.3094 15.7289 10.678C15.7214 11.2571 15.4281 11.7686 15.2099 12.2801C14.8263 13.115 14.3675 13.9123 13.856 14.672C14.1268 14.5667 14.3825 14.4238 14.6684 14.3561C14.533 14.5216 14.3901 14.6795 14.2471 14.8375C14.2848 14.8676 14.375 14.9202 14.4126 14.9503C14.375 15.1158 14.3299 15.2813 14.2923 15.4392C14.4201 15.4317 14.548 15.4242 14.6684 15.4242C14.7436 15.8905 14.2848 16.1463 14.0591 16.4772C14.2923 16.4396 14.5104 16.3343 14.7436 16.3193C14.9166 16.3193 15.052 16.1839 15.2024 16.1087C15.2851 16.1538 15.3754 16.1989 15.4581 16.244C14.548 16.936 13.4047 17.3046 12.2614 17.282C11.2685 17.282 10.2757 17.2896 9.28281 17.282C8.85407 17.282 8.42534 17.282 7.98908 17.282C7.67316 17.282 7.35725 17.282 7.04134 17.282C6.95108 17.282 6.85329 17.282 6.76303 17.282C6.34182 17.282 5.9206 17.2971 5.49939 17.282C5.34895 17.2971 5.28878 17.1316 5.28878 17.0113C5.26621 16.6728 5.28878 16.3418 5.28126 16.0109C5.28126 15.6273 5.28878 15.2437 5.28126 14.8676C5.28126 14.7021 5.30382 14.5366 5.34143 14.3787C5.87547 14.326 6.40951 14.3937 6.93603 14.3561C6.93603 14.1756 6.93603 13.995 6.93603 13.8145C6.93603 13.6716 6.93603 13.5362 6.93603 13.3933C6.96612 13.5137 7.01125 13.634 7.04886 13.7544C7.29708 13.7092 7.5829 13.6415 7.77094 13.8672C8.21473 13.4761 8.86912 13.4911 9.39564 13.273C9.50846 12.9721 9.77924 12.7314 9.74163 12.3854C9.71907 12.3779 9.67394 12.3704 9.6589 12.3628C9.10229 12.1898 8.58329 12.5509 8.04173 12.5885C7.68068 12.5509 7.33468 12.3779 7.10151 12.0996C7.12408 12.0168 7.13912 11.9416 7.16169 11.8589C7.10903 11.8138 7.05638 11.7686 7.00373 11.7235C6.99621 11.5655 6.99621 11.4001 7.00373 11.2421C7.05638 11.0541 7.17673 10.9036 7.34973 10.8209C7.40238 10.5351 7.45503 10.2492 7.50016 9.96341C7.34973 9.77537 7.15416 9.6475 6.92851 9.56476V9.54219C6.92851 9.35415 6.92851 9.15858 6.92851 8.97054C6.93603 8.63959 6.92851 8.30863 6.92851 7.9852C6.92851 7.97015 6.93603 7.92502 6.93603 7.90998C7.10903 7.86485 7.28203 7.83476 7.44751 7.76707C7.62803 7.6392 7.71829 7.42859 7.91386 7.35337Z" fill="#F8F3E4"/>
<path d="M4.59679 7.85733C4.9127 7.72946 5.02552 7.38346 5.27374 7.17285C5.27374 7.36089 5.28126 7.54894 5.28878 7.7445C5.34143 7.75202 5.44674 7.76707 5.49939 7.77459C5.64983 7.77459 5.79274 7.76707 5.94317 7.76707L5.92813 7.84228C5.72504 7.84228 5.52196 7.83476 5.31887 7.83476C5.29631 7.94759 5.27374 8.06041 5.27374 8.18076C4.88261 8.3312 4.64192 8.69976 4.31848 8.94798C4.31848 8.79002 4.326 8.63207 4.34105 8.48163C4.46892 8.28607 4.55918 8.07546 4.59679 7.85733Z" fill="#F4EFC8"/>
<path d="M5.28125 7.17285C5.43921 7.2255 5.60468 7.28568 5.67238 7.45116C5.6122 7.55646 5.55955 7.66176 5.49938 7.77459C5.44673 7.76707 5.34142 7.75202 5.28877 7.7445C5.28125 7.54894 5.28125 7.36089 5.28125 7.17285Z" fill="#FCFCF4"/>
<path d="M9.94479 7.97022C10.1404 7.84987 10.2833 7.62422 10.5315 7.60165C10.8248 7.549 11.0956 7.69944 11.3589 7.81226C11.231 7.81226 11.1031 7.81226 10.9753 7.80474C10.8474 7.79722 10.712 7.7897 10.5841 7.79722C10.4788 7.80474 10.4337 7.86491 10.4412 7.97022C10.3886 7.9627 10.3434 7.94765 10.2908 7.94013C10.1103 8.10561 9.95231 8.32374 9.96736 8.57196C9.9824 8.76752 10.193 8.84274 10.3284 8.95556C10.3284 8.97813 10.3284 9.03078 10.3284 9.05335C9.95231 8.95556 9.59127 8.76752 9.38818 8.42152C9.54614 8.23348 9.74171 8.09809 9.94479 7.97022Z" fill="#D7D7D5"/>
<path d="M5.32638 7.82715C5.52946 7.82715 5.73255 7.83467 5.93564 7.83467H5.98077C6.06351 7.99262 6.16881 8.13554 6.33429 8.2258C6.37942 8.26341 6.43207 8.30102 6.4772 8.34615C6.31925 8.58684 6.08607 8.78241 5.97325 9.05319C5.86042 9.09832 5.7476 9.15097 5.63477 9.18858C5.6122 9.17353 5.55955 9.14345 5.53699 9.1284C5.55955 9.0908 5.60468 9.00806 5.62725 8.97045C5.54451 8.94788 5.45425 8.93284 5.37151 8.91028C5.32638 8.66958 5.29629 8.42136 5.28125 8.17315C5.28125 8.0528 5.29629 7.93997 5.32638 7.82715Z" fill="#E5C66B"/>
<path d="M5.97327 7.83531C6.01088 7.83531 6.07857 7.83531 6.11618 7.84283C6.10114 8.1437 6.44713 8.11361 6.65022 8.076C6.55996 7.98574 6.4697 7.903 6.37192 7.82027C6.56748 7.7977 6.77057 7.80522 6.96613 7.82779L6.94357 7.88796C6.94357 7.903 6.93605 7.94061 6.93605 7.96318C6.7104 8.00831 6.55996 8.249 6.31927 8.21891C6.16883 8.1437 6.05601 8.00078 5.97327 7.83531Z" fill="#242110"/>
<path d="M6.1162 7.84219C6.18389 7.83467 6.31176 7.82715 6.37194 7.82715C6.4622 7.90989 6.55998 7.99263 6.65024 8.08289C6.44715 8.11297 6.10115 8.14306 6.1162 7.84219Z" fill="#938357"/>
<path d="M10.4412 7.97085C10.4262 7.85803 10.4789 7.80537 10.5842 7.79785C10.5917 7.90316 10.539 7.96333 10.4412 7.97085Z" fill="#CDBD83"/>
<path d="M10.9752 7.80469C11.1031 7.81221 11.231 7.80469 11.3588 7.81221L11.3889 7.81973C11.5544 7.92504 11.7199 8.04538 11.8628 8.1883C11.7048 8.52677 11.419 8.8126 11.073 8.95551C10.8624 9.01569 10.6368 9.00064 10.4261 9.00816V8.92542C10.5916 8.92542 10.7496 8.9179 10.9151 8.91038C10.7345 8.82764 10.5615 8.72986 10.4562 8.55686C10.4487 8.43651 10.4487 8.31617 10.4487 8.1883C10.6744 8.15821 10.8474 7.98521 10.9752 7.80469Z" fill="#252211"/>
<path d="M11.3964 7.81999C11.6296 7.81999 11.8703 7.7899 12.1035 7.82751C12.3592 7.91777 12.5548 8.11333 12.7428 8.30138C12.5021 8.54959 12.3442 8.85799 12.1411 9.13629C11.938 9.41459 11.5694 9.46724 11.2836 9.6252C11.0204 9.76811 10.7345 9.8659 10.4337 9.88846C10.4337 9.59511 10.4337 9.30929 10.4261 9.01594C10.6443 9.00842 10.8624 9.02346 11.073 8.96329C11.419 8.82037 11.7048 8.53455 11.8628 8.19607C11.7274 8.04564 11.5619 7.92529 11.3964 7.81999Z" fill="#D2B257"/>
<path d="M6.32686 8.23328C6.56756 8.25584 6.71799 8.02267 6.94364 7.97754C6.94364 8.30849 6.95117 8.63945 6.94364 8.96288C6.76312 9.00801 6.57508 9.1058 6.38704 9.03058C6.24412 8.97793 6.10121 8.99297 5.96582 9.05314C6.07865 8.78236 6.31182 8.59432 6.46978 8.3461C6.42465 8.30849 6.37199 8.27089 6.32686 8.23328Z" fill="#E6BD62"/>
<path d="M11.0053 7.99316C10.8775 8.22634 11.246 8.01573 11.0053 7.99316V7.99316Z" fill="#696148"/>
<path d="M4.31849 8.94104C4.64193 8.68531 4.8751 8.32426 5.27375 8.17383C5.2888 8.42204 5.31888 8.66274 5.36401 8.91096C5.44675 8.93352 5.53701 8.94857 5.61975 8.97113C5.59719 9.00874 5.55206 9.09148 5.52949 9.12909C5.27375 9.32465 4.9428 9.46757 4.81493 9.78348C4.67202 10.1746 4.68706 10.5958 4.63441 11.002C4.54415 10.9117 4.40123 10.8365 4.40876 10.6861C4.38619 10.3852 4.46893 10.0843 4.48397 9.78348C4.34106 9.98656 4.25832 10.2197 4.17558 10.4529C4.13797 10.5958 3.96498 10.6334 3.85215 10.7011C3.73932 10.7463 3.6265 10.7839 3.51367 10.829C3.52872 10.7011 3.54376 10.5808 3.56632 10.4529C3.68667 10.4454 3.7995 10.4303 3.91984 10.4153C3.79198 10.4228 3.66411 10.4303 3.53624 10.4379C3.6265 9.88878 3.68667 9.28704 4.03267 8.82822C4.13045 8.71539 4.23576 8.59504 4.32602 8.4747C4.32602 8.62513 4.32602 8.78309 4.31849 8.94104Z" fill="#F4ECB4"/>
<path d="M11.0806 8.27896C11.1031 8.52718 11.3062 8.17366 11.0806 8.27896V8.27896Z" fill="#71694F"/>
<path d="M12.7429 8.29395C12.773 8.32403 12.8031 8.35412 12.8256 8.39173C13.5176 9.28681 13.7132 10.4677 13.6154 11.5734C13.4951 11.6411 13.3747 11.7013 13.2694 11.7765C13.0814 11.9044 12.9761 12.13 12.7805 12.2579C12.4495 12.4234 12.0283 12.3858 11.7275 12.634C11.5545 12.8295 11.4416 13.0627 11.2461 13.2282C11.3514 13.3335 11.4642 13.4388 11.562 13.5516C11.6146 13.6419 11.5921 13.7547 11.6447 13.845C11.7425 13.9202 11.8478 13.9804 11.9531 14.0481C11.6823 14.0857 11.4115 14.0781 11.1332 14.0405C10.8775 13.9954 10.6518 14.1383 10.4262 14.2211C10.4187 12.7769 10.4262 11.3252 10.4262 9.88103C10.7271 9.85846 11.0129 9.76068 11.2761 9.61777C11.562 9.45981 11.9305 9.41468 12.1336 9.12886C12.3442 8.85807 12.5022 8.54216 12.7429 8.29395Z" fill="#DFCD88"/>
<path d="M10.4562 8.55664C10.5691 8.72212 10.7345 8.82742 10.9151 8.91016C10.7496 8.91768 10.5916 8.9252 10.4261 8.9252C10.4337 8.80486 10.4487 8.68451 10.4562 8.55664Z" fill="#DFCD88"/>
<path d="M5.9658 9.05315C6.10119 8.99298 6.2441 8.97794 6.38701 9.03059C6.57506 9.09828 6.7631 9.00802 6.94362 8.96289C6.94362 9.15093 6.94362 9.3465 6.94362 9.53454C6.58258 9.40667 6.21401 9.30889 5.82288 9.33146C5.75519 9.28633 5.69501 9.24119 5.62732 9.19606C5.74015 9.15093 5.85297 9.09828 5.9658 9.05315Z" fill="#DFC57C"/>
<path d="M4.82242 9.7833C4.95029 9.46738 5.28124 9.32447 5.53698 9.12891C5.55955 9.14395 5.6122 9.17404 5.63476 9.18908C5.70246 9.23421 5.76263 9.27934 5.83033 9.32447C5.48433 9.33199 5.14585 9.55764 5.10824 9.91869C5.04807 10.3775 4.89011 10.8213 4.84498 11.2801C4.79985 11.6111 5.10824 11.8292 5.1985 12.115C5.22859 12.273 5.23611 12.4309 5.28124 12.5889C5.23611 12.792 5.1985 12.9951 5.1609 13.1982C5.0932 13.1982 5.0255 13.1982 4.95781 13.2057C4.89011 13.3712 4.79985 13.5291 4.7472 13.7021C4.80737 14.0331 4.91268 14.3565 4.99542 14.6799C4.98037 14.7175 4.95029 14.7928 4.93524 14.8304C4.76977 14.6498 4.6795 14.4016 4.46137 14.2813C4.40872 14.191 4.34855 14.0932 4.28838 14.003C3.95742 13.4388 3.72425 12.7995 3.62646 12.1526C3.65655 11.9646 3.69416 11.769 3.72425 11.581C3.85964 11.8593 3.84459 12.1902 4.03264 12.4385C4.16051 12.4084 4.28838 12.3708 4.40872 12.3482L4.4689 12.4234C4.60429 12.2354 4.72464 12.0248 4.7472 11.7916C4.66446 11.9119 4.58172 12.0323 4.5065 12.1602C4.4012 11.9947 4.27333 11.8367 4.21316 11.6487C4.17555 11.4306 4.19059 11.2124 4.16803 10.9943C4.08529 11.0093 4.01007 11.0244 3.93485 11.0394L3.99503 10.9792C4.06272 10.904 4.13042 10.8213 4.19811 10.7386C4.10785 10.7235 4.01007 10.7085 3.91981 10.7085H3.85964C3.97246 10.6332 4.14546 10.6032 4.18307 10.4603C4.26581 10.2271 4.34855 9.9939 4.49146 9.79082C4.47642 10.0917 4.39368 10.3926 4.41625 10.6934C4.40872 10.8439 4.54411 10.9191 4.6419 11.0093C4.69455 10.5881 4.67951 10.1669 4.82242 9.7833Z" fill="#F3E19D"/>
<path d="M5.10084 9.91876C5.13845 9.55771 5.47692 9.33958 5.82292 9.32454C6.20653 9.30198 6.58262 9.39976 6.94366 9.52763V9.55019C6.94366 9.88867 6.94366 10.2196 6.94366 10.5581V10.6183C6.83083 10.7311 6.72553 10.8439 6.6127 10.9568C6.43218 11.1147 6.19149 11.1749 5.96584 11.2351C5.95831 11.2802 5.93575 11.378 5.92071 11.4306C5.90566 11.4833 5.8831 11.5961 5.87558 11.6488C5.55214 11.3479 5.3641 10.9492 5.14597 10.5731C5.03314 10.3776 5.07827 10.1369 5.10084 9.91876Z" fill="#252211"/>
<path d="M6.94365 9.55762C7.1693 9.64036 7.36487 9.76822 7.5153 9.95627C7.46265 10.2421 7.41752 10.5279 7.36487 10.8137C7.19187 10.904 7.064 11.0469 7.01887 11.235C7.03391 11.0093 6.99631 10.7837 6.95117 10.5655C6.93613 10.2271 6.94365 9.88857 6.94365 9.55762Z" fill="#DFDDD9"/>
<path d="M1.82129 9.64802C2.06198 9.61793 2.30268 9.6405 2.54337 9.63298L2.43807 9.76837C2.81415 9.73828 3.19024 9.76837 3.55128 9.87367C3.22033 9.80598 2.88937 9.75333 2.55089 9.78341C2.42303 9.79846 2.31772 9.73828 2.21242 9.67811C2.09207 9.66306 1.90403 9.79093 1.82129 9.64802Z" fill="#D6D6D5"/>
<path d="M4.83746 11.2804C4.88259 10.8216 5.04055 10.3778 5.10072 9.91895C5.07816 10.1371 5.03303 10.3778 5.14585 10.5809C5.36398 10.9569 5.55203 11.3556 5.87546 11.6565C5.89051 11.6038 5.91307 11.491 5.92059 11.4383C6.04094 11.4459 6.15377 11.4534 6.27411 11.4609C6.43959 11.5963 6.62011 11.7166 6.76302 11.8746C6.91346 11.5812 6.70285 11.2954 6.72542 10.9945C6.69533 10.987 6.63515 10.9795 6.60507 10.972C6.71037 10.8592 6.8232 10.7388 6.93603 10.6335C6.93603 11.145 6.93603 11.6565 6.93603 12.1679C6.35685 11.9874 5.74007 11.7768 5.13081 11.9724C5.69494 12.2281 6.33429 12.2507 6.93603 12.4086C6.93603 12.5741 6.93603 12.7471 6.93603 12.9201C6.65772 13.048 6.4095 13.2135 6.13872 13.3564C5.86042 13.1683 5.65733 12.89 5.37903 12.702C5.35646 12.6794 5.29629 12.6268 5.27372 12.6042C5.23612 12.4462 5.22107 12.2883 5.19099 12.1303C5.10072 11.8295 4.79986 11.6113 4.83746 11.2804Z" fill="#6E6342"/>
<path d="M2.54333 10.7533C2.82916 10.5954 3.16012 10.5201 3.47603 10.46C3.44594 10.5352 3.38577 10.5728 3.31055 10.5954C3.05481 10.663 2.8066 10.7533 2.54333 10.7533Z" fill="#BFA64C"/>
<path d="M17.5266 10.4297C17.677 10.8208 17.6695 11.2571 17.82 11.6482C17.9779 12.2048 18.2863 12.7464 18.2337 13.3481C18.1584 13.2202 18.0832 13.0924 18.0907 12.9419C18.0907 12.6185 17.9177 12.3402 17.8425 12.0318C17.7523 11.6933 17.6545 11.3624 17.5492 11.0314C17.5492 10.8283 17.5417 10.6328 17.5266 10.4297Z" fill="#988430"/>
<path d="M6.94356 10.5654C6.98869 10.7836 7.0263 11.0092 7.01125 11.2349C7.00373 11.3928 7.00373 11.5583 7.01125 11.7163C7.0639 11.7614 7.11655 11.8065 7.16921 11.8516C7.14664 11.9344 7.12408 12.0096 7.10903 12.0923C7.07895 12.2052 7.07143 12.333 7.07895 12.4534C7.89881 12.7392 8.92177 12.9423 9.66642 12.3556C9.68898 12.3631 9.73411 12.3706 9.74916 12.3782C9.78677 12.7242 9.51598 12.9649 9.40316 13.2657C8.87664 13.4839 8.22225 13.4613 7.77847 13.8599C7.59042 13.6343 7.31212 13.702 7.05638 13.7471C7.01877 13.6268 6.98116 13.5064 6.94356 13.3861C6.93603 13.2281 6.93604 13.0777 6.93604 12.9197C6.93604 12.7543 6.93604 12.5812 6.93604 12.4082C6.93604 12.3255 6.93604 12.2503 6.93604 12.1676C6.93604 11.6561 6.93604 11.1446 6.93604 10.6331L6.94356 10.5654Z" fill="#E7E3DB"/>
<path d="M3.92734 10.6934C4.0176 10.7009 4.11538 10.7159 4.20564 10.7234C4.13795 10.8062 4.07025 10.8814 4.00256 10.9641C3.8446 11.0469 3.69416 11.1221 3.53621 11.1973C3.53621 11.1146 3.52869 10.9566 3.52869 10.8814C3.65656 10.8137 3.79195 10.7535 3.92734 10.6934Z" fill="#F5EDB6"/>
<path d="M3.94247 11.0315C4.01769 11.0164 4.10043 11.0014 4.17565 10.9863C4.19069 11.2045 4.18317 11.4226 4.22078 11.6407C4.28095 11.8288 4.40882 11.9867 4.51412 12.1522C4.47652 12.2199 4.44643 12.2801 4.40882 12.3478C4.28095 12.3703 4.15308 12.4004 4.03273 12.438C3.84469 12.1898 3.85973 11.8513 3.72434 11.5805C3.69426 11.7686 3.65665 11.9642 3.62656 12.1522C3.58895 11.8664 3.54382 11.5805 3.54382 11.2872C3.64161 11.1593 3.8146 11.1142 3.94247 11.0315Z" fill="#F4ECB4"/>
<path d="M5.96583 11.2422C6.19148 11.182 6.43218 11.1218 6.6127 10.9639C6.64279 10.9714 6.70296 10.9789 6.73305 10.9864C6.70296 11.2873 6.92109 11.5731 6.77066 11.8665C6.62774 11.7085 6.44722 11.5882 6.28174 11.4528C6.1614 11.4453 6.04857 11.4377 5.92822 11.4302C5.93574 11.3926 5.95831 11.2948 5.96583 11.2422Z" fill="#39331F"/>
<path d="M17.5492 11.0322C17.647 11.3632 17.7448 11.7017 17.8425 12.0326C17.9253 12.3335 18.0908 12.6193 18.0908 12.9427C18.0832 13.0932 18.1584 13.2286 18.2337 13.3489C18.1735 13.7777 18.3991 14.1688 18.3766 14.59C18.3691 14.748 18.354 14.8984 18.3465 15.0563C18.2863 14.9586 18.2261 14.8683 18.1509 14.7856C18.0682 15.0413 18.1208 15.3497 17.9178 15.5528C17.8275 15.4249 17.7824 15.2143 17.6018 15.1917C17.3386 15.1466 17.0828 15.282 16.9098 15.47C16.6767 15.7183 16.3081 15.7333 15.9922 15.7634C16.2479 15.5077 16.4585 15.2143 16.6541 14.9134C16.8271 14.9661 16.9474 14.8157 17.0753 14.7254C17.2032 14.6126 17.3762 14.5825 17.5191 14.4997C17.6394 14.3042 17.7297 14.0936 17.7824 13.8679C17.7448 13.725 17.6695 13.5821 17.6394 13.4392C17.5642 13.4542 17.489 13.4768 17.4138 13.4918C17.3837 13.4693 17.316 13.4166 17.2784 13.3865C17.474 12.6193 17.5492 11.822 17.5492 11.0322Z" fill="#CCA847"/>
<path d="M3.20525 11.3627C3.31808 11.31 3.31808 11.4604 3.22782 11.483C3.14508 11.5206 3.05482 11.6034 2.95703 11.5658C2.94951 11.4454 3.11499 11.4003 3.20525 11.3627Z" fill="#C1A956"/>
<path d="M13.2693 11.7763C13.3821 11.7011 13.5025 11.6409 13.6153 11.5732C13.5326 12.5059 13.2091 13.5063 12.4118 14.0705C11.8477 14.4992 11.1031 14.2886 10.4487 14.3337C10.4411 14.3036 10.4261 14.251 10.4186 14.2209C10.6442 14.1306 10.8699 13.9877 11.1256 14.0404C11.3964 14.078 11.6747 14.0855 11.9455 14.0479C11.8402 13.9802 11.7349 13.9275 11.6371 13.8448C11.5844 13.7545 11.607 13.6417 11.5544 13.5515C11.4566 13.4386 11.3438 13.3333 11.2384 13.228C11.434 13.0625 11.5544 12.8218 11.7198 12.6338C12.0207 12.3856 12.4419 12.4307 12.7729 12.2577C12.976 12.1298 13.0813 11.9042 13.2693 11.7763Z" fill="#ECD592"/>
<path d="M4.51404 12.1527C4.58926 12.0249 4.66448 11.9045 4.75474 11.7842C4.73217 12.0249 4.6043 12.228 4.47643 12.416L4.41626 12.3408C4.44635 12.2806 4.47643 12.2129 4.51404 12.1527Z" fill="#D7C27C"/>
<path d="M5.13843 11.9641C5.74017 11.7685 6.36447 11.9791 6.94364 12.1596C6.94364 12.2424 6.94364 12.3176 6.94364 12.4003C6.3419 12.2424 5.70256 12.2273 5.13843 11.9641Z" fill="#242110"/>
<path d="M7.07898 12.446C7.07898 12.3257 7.07898 12.2053 7.10907 12.085C7.34224 12.3633 7.68824 12.5363 8.04928 12.5739C8.59084 12.5363 9.10984 12.1752 9.66645 12.3482C8.9218 12.9349 7.89885 12.7318 7.07898 12.446Z" fill="#D6D6D5"/>
<path d="M5.27376 12.5889C5.29632 12.6114 5.3565 12.6641 5.37906 12.6866C5.40915 13.0552 5.62728 13.3636 5.80028 13.672C5.93567 13.9277 6.17636 14.1158 6.41706 14.2813C6.59006 14.3264 6.76306 14.3189 6.94358 14.3339C6.40954 14.3715 5.8755 14.3038 5.34898 14.3565C5.31137 14.5144 5.28128 14.6799 5.2888 14.8454C5.19102 14.7852 5.10076 14.725 5.00298 14.6724C4.92776 14.3414 4.81493 14.0255 4.75476 13.6946C4.80741 13.5216 4.89015 13.3636 4.96537 13.1981C5.03306 13.1981 5.10076 13.1906 5.16846 13.1906C5.19102 12.995 5.22863 12.792 5.27376 12.5889Z" fill="#EED88B"/>
<path d="M5.37903 12.6865C5.65733 12.8746 5.86042 13.1529 6.13872 13.3409C6.21394 13.4086 6.28916 13.4838 6.36437 13.559C6.52985 13.6869 6.74046 13.732 6.93603 13.7847C6.93603 13.9652 6.93603 14.1457 6.93603 14.3263C6.76303 14.3112 6.5825 14.3187 6.4095 14.2736C6.16881 14.1157 5.93564 13.9276 5.79272 13.6643C5.62725 13.3635 5.40912 13.0551 5.37903 12.6865Z" fill="#DFC677"/>
<path d="M6.14624 13.3406C6.41702 13.1976 6.66524 13.0322 6.94354 12.9043C6.94354 13.0623 6.94354 13.2127 6.95106 13.3706C6.74798 13.4007 6.5148 13.3857 6.37941 13.5587C6.29667 13.491 6.22146 13.4158 6.14624 13.3406Z" fill="#927D49"/>
<path d="M6.37195 13.5591C6.51486 13.3861 6.74803 13.4012 6.9436 13.3711C6.9436 13.514 6.9436 13.6494 6.9436 13.7923C6.74051 13.7321 6.5299 13.6945 6.37195 13.5591Z" fill="#C4A859"/>
<path d="M17.2709 13.3857C17.301 13.4158 17.3687 13.461 17.4063 13.491C17.4815 13.476 17.5567 13.4534 17.632 13.4384C17.662 13.5888 17.7373 13.7242 17.7749 13.8671C17.7222 14.0928 17.632 14.3034 17.5116 14.499C17.3687 14.5817 17.2032 14.6193 17.0678 14.7246C16.94 14.8074 16.8196 14.9653 16.6466 14.9127C16.9174 14.4388 17.128 13.9198 17.2709 13.3857Z" fill="#C0993A"/>
<path d="M4.2884 13.9951C4.34105 14.0854 4.40123 14.1756 4.4614 14.2734C4.61936 14.8902 4.83749 15.5371 5.28879 15.9959C5.29631 16.3344 5.27375 16.6653 5.29631 16.9963C5.29631 17.1166 5.35649 17.2821 5.50692 17.2671C5.92814 17.2821 6.34935 17.2671 6.77057 17.2671C6.60509 17.4852 6.72544 17.7409 6.73296 17.9816C6.74048 18.2675 6.89092 18.5157 6.92853 18.794C6.80818 19.0948 6.61261 19.3506 6.45466 19.6364C6.2967 19.659 6.13122 19.5988 5.98079 19.6439C5.89053 19.7643 5.83788 19.9448 5.6724 19.9749C4.86757 19.4709 4.10788 18.8918 3.45349 18.1922C3.73932 17.6055 3.98753 16.9737 3.92736 16.3118C3.88223 16.041 4.09284 15.8229 4.13797 15.5596C4.13045 15.4092 4.01762 15.2889 3.94993 15.161C4.19062 14.83 4.27336 14.4088 4.2884 13.9951Z" fill="#E5CB7A"/>
<path d="M4.46143 14.2734C4.67956 14.3938 4.76982 14.6495 4.9353 14.8225C4.95034 14.7849 4.98042 14.7097 4.99547 14.6721C5.09325 14.7323 5.18351 14.7924 5.2813 14.8451C5.28882 15.2287 5.28882 15.6123 5.2813 15.9884C4.83751 15.5296 4.61938 14.8902 4.46143 14.2734Z" fill="#D2B159"/>
<path d="M18.1509 14.7852C18.2261 14.8679 18.2863 14.9582 18.3465 15.0559C18.3841 15.4997 18.4819 15.9435 18.4894 16.3948C18.4969 17.0041 18.512 17.6133 18.5345 18.2151C17.8576 18.9296 17.0753 19.5464 16.2178 20.0353C15.8944 19.8021 15.5183 19.9827 15.225 20.1707C15.2776 20.0654 15.3604 19.9751 15.4506 19.8999C15.6311 19.7495 15.7064 19.5088 15.8944 19.3584C16.09 19.1854 16.3532 19.0801 16.5037 18.8619C16.6616 18.5235 17.0001 18.3429 17.2032 18.0421C17.3912 17.7638 17.7071 17.5155 17.6771 17.147C17.662 16.8311 17.7297 16.5227 17.7673 16.2143C17.7748 15.9886 17.8124 15.7555 17.9102 15.5524C18.1284 15.3568 18.0682 15.0409 18.1509 14.7852Z" fill="#BA9040"/>
<path d="M16.9023 15.4694C17.0829 15.2814 17.3311 15.1535 17.5943 15.1911C17.7824 15.2062 17.8275 15.4243 17.9102 15.5522C17.8125 15.7553 17.7824 15.9884 17.7673 16.2141C17.7297 16.5225 17.6695 16.8309 17.6771 17.1468C17.7072 17.5154 17.3912 17.7636 17.2032 18.0419C17.0001 18.3427 16.6616 18.5233 16.5037 18.8617C16.3909 18.8617 16.2855 18.8617 16.1802 18.8617C16.451 18.4405 16.624 17.9667 16.8422 17.5229C16.8948 17.4477 16.8722 17.3649 16.8422 17.2897C16.7895 17.1618 16.8572 17.0264 16.8497 16.8911C16.8271 16.7557 16.7669 16.6278 16.7218 16.4999C16.4886 16.4548 16.2555 16.3946 16.0148 16.4097C15.7214 16.4623 15.5108 16.7105 15.2476 16.8309C15.1197 16.8835 14.9768 16.8986 14.8564 16.9738C14.6232 17.1769 14.5631 17.5229 14.2923 17.6884C14.029 17.8689 13.7883 18.0945 13.5401 18.2976C13.3897 18.433 13.1791 18.3352 12.9986 18.3653C12.8406 18.448 12.7353 18.591 12.5849 18.6812C12.3968 18.7489 12.1636 18.7188 12.0057 18.8617C11.7424 19.0874 11.3663 19.0197 11.088 19.2228C10.7796 19.3807 10.6367 19.7343 10.3359 19.9073C10.1102 20.0427 9.93722 20.2382 9.7567 20.4263C9.71157 20.3661 9.65891 20.3059 9.61378 20.2533C9.36556 20.3962 9.16248 20.6293 8.86913 20.6895C8.76383 20.5692 8.66604 20.4187 8.48552 20.4112C8.51561 20.351 8.5457 20.2909 8.56826 20.2307C8.50809 20.148 8.43287 20.0727 8.32757 20.0878C8.05679 20.0577 7.77848 20.1103 7.5077 20.0953C7.31966 19.9975 7.1617 19.8471 7.0564 19.6666C7.267 19.4184 7.36479 19.1024 7.53779 18.8317C7.64309 18.6887 7.80857 18.8016 7.93644 18.8317C7.98909 18.7038 8.04927 18.5834 8.10192 18.4556C8.17713 18.4631 8.25235 18.4706 8.32005 18.4857C8.50057 18.3277 8.59835 18.1096 8.66605 17.8839C8.78639 17.8463 8.90674 17.8162 9.01957 17.7786C9.01957 17.5831 9.10983 17.4101 9.25274 17.2822C10.2456 17.2897 11.2385 17.2822 12.2313 17.2822C13.3746 17.3048 14.5179 16.9362 15.4281 16.2442C15.6161 16.1013 15.7891 15.9358 15.9546 15.7628C16.3081 15.7327 16.6692 15.7252 16.9023 15.4694Z" fill="#D8C173"/>
<path d="M15.2627 16.8386C15.5259 16.7183 15.7365 16.4776 16.0299 16.4174C16.2706 16.4024 16.5037 16.4625 16.7369 16.5077C16.782 16.6355 16.8422 16.7634 16.8648 16.8988C16.8723 17.0342 16.8046 17.162 16.8573 17.2974C16.8798 17.3727 16.9024 17.4554 16.8573 17.5306C16.6391 17.9819 16.4661 18.4483 16.1953 18.8695C16.3082 18.8695 16.4135 18.8695 16.5188 18.8695C16.3683 19.0876 16.1051 19.1854 15.9095 19.3659C15.7215 19.5088 15.6463 19.757 15.4657 19.9075C15.3755 19.9827 15.2927 20.073 15.2401 20.1783C14.849 20.434 14.3901 20.5543 13.9764 20.765C13.9764 20.6897 13.9689 20.6145 13.9689 20.5393C13.6681 20.607 13.3672 20.6672 13.0738 20.7499C12.8181 20.8176 12.6677 21.0508 12.442 21.1711C12.2615 21.2388 12.0584 21.2539 11.923 21.4043C10.5541 21.5171 9.17006 21.3817 7.85376 20.9756C7.99667 20.9304 8.14711 20.8778 8.29002 20.8251C8.31259 20.6672 8.39532 20.5318 8.50815 20.4189C8.68867 20.4265 8.78645 20.5769 8.89176 20.6973C9.18511 20.6371 9.38819 20.4039 9.63641 20.261C9.68154 20.3212 9.73419 20.3813 9.77932 20.434C9.95984 20.2459 10.1328 20.0504 10.3585 19.915C10.6594 19.742 10.7948 19.3885 11.1107 19.2305C11.389 19.0274 11.7726 19.0951 12.0283 18.8695C12.1863 18.7266 12.4119 18.7566 12.6075 18.689C12.7579 18.5987 12.8632 18.4483 13.0212 18.373C13.2017 18.343 13.4123 18.4483 13.5627 18.3053C13.811 18.1023 14.0517 17.8766 14.3149 17.6961C14.5857 17.5306 14.6459 17.1771 14.879 16.9815C14.9919 16.8988 15.1348 16.8913 15.2627 16.8386Z" fill="#E0CD81"/>
<path d="M6.7631 17.2822C6.85336 17.2822 6.95115 17.2822 7.04141 17.2822C7.25201 17.538 7.53032 17.8163 7.88384 17.8163C8.16214 17.7862 8.02675 17.4552 7.98914 17.2822C8.41788 17.2822 8.85414 17.2822 9.28288 17.2822C9.13996 17.4176 9.0497 17.5831 9.0497 17.7787C8.92936 17.8163 8.81653 17.8464 8.69618 17.884C8.62849 18.1096 8.52318 18.3277 8.35018 18.4857C8.27497 18.4782 8.19975 18.4707 8.13206 18.4556C8.0794 18.576 8.01923 18.7038 7.96658 18.8317C7.83871 18.8016 7.66571 18.6813 7.56793 18.8317C7.39493 19.1025 7.29715 19.4184 7.08654 19.6666C7.04893 19.5914 7.01132 19.5162 6.97371 19.441C6.80071 19.5162 6.62771 19.5914 6.45471 19.6516C6.61267 19.3733 6.80823 19.11 6.92858 18.8091C6.88345 18.5308 6.73302 18.2826 6.73302 17.9968C6.71797 17.7561 6.60515 17.4928 6.7631 17.2822Z" fill="#C2A44D"/>
<path d="M7.04138 17.2822C7.35729 17.2822 7.67321 17.2822 7.98912 17.2822C8.02673 17.4552 8.16212 17.7862 7.88381 17.8163C7.53029 17.8087 7.25951 17.5304 7.04138 17.2822Z" fill="#D2B159"/>
<path d="M6.44718 19.6442C6.62018 19.5765 6.79318 19.5088 6.96618 19.4336C7.00378 19.5088 7.04139 19.584 7.079 19.6592C7.19183 19.8398 7.34978 19.9902 7.53031 20.088C7.80109 20.1105 8.07939 20.0504 8.35017 20.0805C8.463 20.0654 8.53069 20.1406 8.59087 20.2234C8.56078 20.2835 8.53822 20.3437 8.50813 20.4039C8.3953 20.5167 8.30504 20.6446 8.29 20.8101C8.14709 20.8627 7.99665 20.9154 7.85374 20.9605C7.09404 20.7048 6.36444 20.3813 5.66492 19.9827C5.83792 19.9526 5.88305 19.7721 5.97331 19.6517C6.12374 19.6066 6.28922 19.6743 6.44718 19.6442Z" fill="#CEB052"/>
<path d="M15.2325 20.1711C15.5259 19.9831 15.902 19.8101 16.2254 20.0357C14.9166 20.7954 13.4348 21.2768 11.923 21.3896C12.0584 21.2392 12.2615 21.2241 12.442 21.1564C12.6676 21.0361 12.8181 20.8029 13.0738 20.7352C13.3671 20.6525 13.668 20.5923 13.9689 20.5246C13.9689 20.5998 13.9764 20.6751 13.9764 20.7503C14.3826 20.5472 14.8414 20.4268 15.2325 20.1711Z" fill="#D2BA6B"/>
</g>
<defs>
<clipPath id="clip0_21725_2052">
<rect width="22" height="22" fill="white"/>
</clipPath>
</defs>
</svg>
