<svg width="36" height="37" viewBox="0 0 36 37" fill="none" xmlns="http://www.w3.org/2000/svg">
<g id="USDC">
<g id="Icon">
<path id="Vector" d="M18 36.5C27.9751 36.5 36 28.4751 36 18.5C36 8.52494 27.9751 0.5 18 0.5C8.02494 0.5 0 8.52494 0 18.5C0 28.4751 8.02494 36.5 18 36.5Z" fill="#2775CA"/>
<path id="Vector_2" d="M22.9501 21.3504C22.9501 18.7255 21.3751 17.8254 18.2251 17.4505C15.9751 17.1505 15.5251 16.5505 15.5251 15.5004C15.5251 14.4503 16.2751 13.7755 17.7751 13.7755C19.1251 13.7755 19.8751 14.2255 20.2501 15.3505C20.3251 15.5755 20.5501 15.7254 20.7751 15.7254H21.975C22.2751 15.7254 22.5001 15.5004 22.5001 15.2005V15.1255C22.2 13.4754 20.85 12.2005 19.1251 12.0505V10.2505C19.1251 9.95045 18.9001 9.72545 18.5251 9.65039H17.4001C17.1001 9.65039 16.8751 9.87539 16.8 10.2505V11.9755C14.55 12.2755 13.1251 13.7755 13.1251 15.6505C13.1251 18.1255 14.6251 19.1004 17.7751 19.4755C19.8751 19.8505 20.5501 20.3005 20.5501 21.5005C20.5501 22.7006 19.5 23.5255 18.0751 23.5255C16.125 23.5255 15.45 22.7004 15.225 21.5754C15.1501 21.2755 14.9251 21.1254 14.7001 21.1254H13.425C13.1251 21.1254 12.9001 21.3504 12.9001 21.6505V21.7255C13.2 23.6004 14.4001 24.9504 16.8751 25.3255V27.1255C16.8751 27.4254 17.1001 27.6504 17.475 27.7255H18.6C18.9001 27.7255 19.1251 27.5005 19.2001 27.1255V25.3255C21.4501 24.9504 22.9501 23.3754 22.9501 21.3504Z" fill="white"/>
<path id="Vector_3" d="M14.175 29.2249C8.325 27.125 5.32494 20.6 7.50006 14.8249C8.62506 11.6749 11.1001 9.27494 14.175 8.14994C14.4751 8 14.625 7.775 14.625 7.39988V6.34994C14.625 6.04988 14.4751 5.82488 14.175 5.75C14.0999 5.75 13.95 5.75 13.8749 5.82488C6.75 8.07488 2.84994 15.65 5.09994 22.7749C6.44994 26.9749 9.675 30.1999 13.8749 31.5499C14.175 31.6999 14.4751 31.5499 14.5499 31.2499C14.625 31.175 14.625 31.0999 14.625 30.95V29.8999C14.625 29.6749 14.4 29.375 14.175 29.2249ZM22.1251 5.82488C21.825 5.67494 21.5249 5.82488 21.4501 6.12494C21.375 6.2 21.375 6.27488 21.375 6.425V7.47494C21.375 7.775 21.6 8.07488 21.825 8.225C27.675 10.3249 30.6751 16.8499 28.4999 22.625C27.3749 25.775 24.8999 28.1749 21.825 29.2999C21.5249 29.4499 21.375 29.6749 21.375 30.05V31.0999C21.375 31.4 21.5249 31.625 21.825 31.6999C21.9001 31.6999 22.05 31.6999 22.1251 31.625C29.25 29.375 33.1501 21.7999 30.9001 14.6749C29.5501 10.3999 26.2499 7.17488 22.1251 5.82488Z" fill="white"/>
</g>
</g>
</svg>
