<svg width="36" height="37" viewBox="0 0 36 37" fill="none" xmlns="http://www.w3.org/2000/svg">
<g id="USDT">
<path id="Union" d="M28.576 4H7.84031C7.35956 4 6.91328 4.24221 6.66178 4.63965L0.204291 14.8447C-0.131943 15.3761 -0.0463216 16.0621 0.410923 16.5003L17.0168 32.4147C17.5555 32.9309 18.422 32.9309 18.9606 32.4147L35.5891 16.4787C36.036 16.0505 36.1289 15.384 35.8158 14.8558L29.7745 4.67232C29.5278 4.25638 29.0707 4 28.576 4Z" fill="#009393"/>
<path id="Subtract" fill-rule="evenodd" clip-rule="evenodd" d="M25.8986 11.4042V8.54688H10.163V11.4042H16.0697V13.3853C11.9212 13.597 8.80887 14.4665 8.78581 15.5087L8.78564 17.6814C8.80874 18.7236 11.9212 19.5931 16.0697 19.8048V24.6666H19.9919V19.8048C24.1403 19.5931 27.2527 18.7236 27.2758 17.6814L27.2759 15.5087C27.2528 14.4665 24.1403 13.597 19.9919 13.3853V11.4042H25.8986ZM27.0639 16.595C26.1584 17.5769 22.458 18.3122 18.0308 18.3122C13.6036 18.3122 9.90324 17.5769 8.99764 16.595C9.76558 15.7624 12.5433 15.1071 16.0697 14.9272V17.0013C16.7018 17.0336 17.3579 17.0506 18.0308 17.0506C18.7037 17.0506 19.3598 17.0336 19.9919 17.0013V14.9272C23.5183 15.1071 26.296 15.7624 27.0639 16.595Z" fill="white"/>
</g>
</svg>
