<svg width="123" height="123" viewBox="0 0 123 123" fill="none" xmlns="http://www.w3.org/2000/svg">
<path d="M83.989 73.4273C83.989 61.5016 76.8335 57.4127 62.5223 55.7092C52.3 54.346 50.2555 51.6203 50.2555 46.8494C50.2555 42.0785 53.6632 39.0126 60.4778 39.0126C66.6112 39.0126 70.0189 41.057 71.7223 46.1682C72.0633 47.1904 73.0856 47.8716 74.1078 47.8716H79.5591C80.9224 47.8716 81.9446 46.8494 81.9446 45.487V45.146C80.5813 37.6493 74.448 31.857 66.6112 31.1758V22.998C66.6112 21.6347 65.589 20.6125 63.8855 20.2715H58.7744C57.4111 20.2715 56.3889 21.2937 56.0479 22.998V30.8348C45.8256 32.198 39.3521 39.0126 39.3521 47.5314C39.3521 58.7759 46.1666 63.205 60.4778 64.9093C70.0189 66.6127 73.0856 68.6572 73.0856 74.1093C73.0856 79.5615 68.3146 83.3094 61.8411 83.3094C52.9812 83.3094 49.9145 79.5607 48.8923 74.4495C48.5521 73.0871 47.5299 72.4051 46.5077 72.4051H40.7145C39.3521 72.4051 38.3298 73.4273 38.3298 74.7905V75.1316C39.6923 83.6496 45.1444 89.7829 56.3889 91.4872V99.665C56.3889 101.027 57.4111 102.05 59.1146 102.391H64.2257C65.5889 102.391 66.6112 101.368 66.9522 99.665V91.4872C77.1745 89.7829 83.989 82.6273 83.989 73.4273Z" fill="#4C9AEF"/>
<path d="M44.1221 109.205C17.5442 99.6643 3.91426 70.0197 13.7963 43.782C18.9075 29.4708 30.152 18.5674 44.1221 13.4562C45.4854 12.775 46.1666 11.7528 46.1666 10.0485V5.2784C46.1666 3.91516 45.4854 2.89293 44.1221 2.55273C43.7811 2.55273 43.0999 2.55273 42.7589 2.89293C10.3886 13.1152 -7.33024 47.5307 2.89203 79.901C9.0254 98.9823 23.6776 113.634 42.7589 119.768C44.1221 120.449 45.4854 119.768 45.8256 118.405C46.1666 118.064 46.1666 117.723 46.1666 117.042V112.271C46.1666 111.249 45.1444 109.887 44.1221 109.205ZM80.2411 2.89293C78.8779 2.21172 77.5146 2.89293 77.1744 4.25617C76.8334 4.59719 76.8334 4.93739 76.8334 5.61942V10.3895C76.8334 11.7528 77.8556 13.1152 78.8779 13.7972C105.456 23.3375 119.086 52.9821 109.204 79.2198C104.093 93.531 92.848 104.434 78.8779 109.546C77.5146 110.227 76.8334 111.249 76.8334 112.953V117.723C76.8334 119.087 77.5146 120.109 78.8779 120.449C79.2189 120.449 79.9001 120.449 80.2411 120.109C112.611 109.887 130.33 75.4711 120.108 43.1008C113.975 23.6785 98.9814 9.02629 80.2411 2.89293Z" fill="#4C9AEF"/>
</svg>
