<svg width="123" height="123" viewBox="0 0 123 123" fill="none" xmlns="http://www.w3.org/2000/svg">
<g id="USDC/Variant3">
<path id="Icon" fill-rule="evenodd" clip-rule="evenodd" d="M26.7877 11H97.6345C99.3249 11 100.887 11.8813 101.73 13.311L122.371 48.3145C123.441 50.1298 123.123 52.421 121.596 53.8929L64.7822 108.669C62.9417 110.444 59.9811 110.444 58.1407 108.669L1.40399 53.9669C-0.158265 52.4608 -0.450805 50.1027 0.697995 48.2762L22.7611 13.1987C23.6204 11.8326 25.1452 11 26.7877 11ZM88.4869 26.6279V36.4493H68.3056V43.2588C82.4795 43.9865 93.1138 46.9753 93.1927 50.5577L93.1923 58.0257C93.1134 61.6081 82.4795 64.5968 68.3056 65.3244V82.0358H54.9048V65.3244C40.7308 64.5968 30.0965 61.6081 30.0176 58.0257L30.0182 50.5577C30.097 46.9753 40.7308 43.9865 54.9048 43.2588V36.4493H34.7235V26.6279H88.4869ZM61.6052 60.1939C76.7314 60.1939 89.3744 57.6666 92.4684 54.2916C89.8446 51.4297 80.3541 49.1773 68.3056 48.5587V55.6883C66.146 55.7991 63.9043 55.8576 61.6052 55.8576C59.3061 55.8576 57.0643 55.7991 54.9048 55.6883V48.5587C42.8562 49.1773 33.3657 51.4297 30.7419 54.2916C33.8361 57.6666 46.479 60.1939 61.6052 60.1939Z" fill="#2EB3B3"/>
</g>
</svg>
